<svg xmlns="http://www.w3.org/2000/svg" viewBox="0 0 191.47 257.17"><defs><style>.cls-1{fill:#ffbc03;}.cls-2{fill:#f9ca55;}.cls-3{fill:#ffa506;}.cls-4{opacity:0.1;}.cls-5{fill:#46c178;}</style></defs><title>Ресурс 1</title><g id="Слой_2" data-name="Слой 2"><g id="OBJECTS"><rect class="cls-1" x="6.15" y="78.27" width="179.16" height="178.34"/><rect class="cls-2" x="6.15" y="78.27" width="16.39" height="178.34"/><rect class="cls-2" x="36.15" y="78.27" width="16.4" height="178.34"/><rect class="cls-2" x="66.15" y="78.27" width="16.4" height="178.34"/><rect class="cls-2" x="96.15" y="78.27" width="16.4" height="178.34"/><rect class="cls-2" x="126.15" y="78.27" width="16.4" height="178.34"/><rect class="cls-2" x="156.15" y="78.27" width="16.4" height="178.34"/><rect class="cls-3" y="55.58" width="191.47" height="45.73"/><rect class="cls-4" x="6.15" y="101.31" width="179.16" height="10.43"/><path class="cls-5" d="M106.77,48.38A10.65,10.65,0,1,1,96.12,37.74,10.65,10.65,0,0,1,106.77,48.38Z"/><polygon class="cls-5" points="98.16 40 129.03 0 142.55 20 101.31 44.41 98.16 40"/><polygon class="cls-5" points="101.63 46.3 162.09 25.19 169.34 55.58 101.63 55.58 101.63 46.3"/><polygon class="cls-5" points="93.72 40 62.85 0 49.33 20 90.57 44.41 93.72 40"/><polygon class="cls-5" points="90.25 46.3 29.79 25.19 22.54 55.58 90.25 55.58 90.25 46.3"/><rect class="cls-5" x="86.33" y="55.58" width="19.64" height="201.6"/></g></g></svg>