<svg xmlns="http://www.w3.org/2000/svg" xmlns:xlink="http://www.w3.org/1999/xlink" viewBox="0 0 315.32 164"><defs><style>.cls-1{fill:none;}.cls-2{fill:#ed1b24;}.cls-3{clip-path:url(#clip-path);}.cls-4{fill:#f4515e;}.cls-5{opacity:0.1;}.cls-6{fill:#b8d338;}.cls-7{fill:#afba1a;}</style><clipPath id="clip-path"><rect class="cls-1" x="10.32" y="33.25" width="288.86" height="96"/></clipPath></defs><title>Ресурс 8</title><g id="Слой_2" data-name="Слой 2"><g id="OBJECTS"><rect class="cls-2" x="10.32" y="33.25" width="288.86" height="96"/><g class="cls-3"><path class="cls-4" d="M315.32,24c-8.49,0-12.67-5.82-16.35-11-3.48-4.85-6.48-9-12.32-9s-8.85,4.19-12.32,9c-3.69,5.14-7.86,11-16.35,11s-12.67-5.82-16.35-11c-3.48-4.85-6.48-9-12.32-9S220.47,8.19,217,13c-3.68,5.14-7.85,11-16.35,11S188,18.18,184.29,13c-3.47-4.85-6.47-9-12.31-9s-8.84,4.19-12.32,9c-3.68,5.14-7.85,11-16.35,11S130.64,18.18,127,13c-3.47-4.85-6.47-9-12.31-9s-8.84,4.19-12.32,9C98.65,18.18,94.48,24,86,24S73.32,18.18,69.64,13c-3.47-4.85-6.48-9-12.31-9S48.49,8.19,45,13c-3.68,5.14-7.85,11-16.35,11S16,18.18,12.32,13C8.84,8.19,5.84,4,0,4V0C8.5,0,12.67,5.82,16.35,11c3.47,4.85,6.48,9,12.31,9S37.51,15.81,41,11C44.66,5.82,48.83,0,57.33,0S70,5.82,73.67,11c3.48,4.85,6.48,9,12.32,9s8.84-4.19,12.31-9C102,5.82,106.15,0,114.65,0S127.31,5.82,131,11c3.47,4.85,6.47,9,12.31,9s8.84-4.19,12.32-9C159.31,5.82,163.48,0,172,0s12.66,5.82,16.34,11c3.48,4.85,6.48,9,12.32,9s8.84-4.19,12.32-9c3.68-5.14,7.86-11,16.35-11S242,5.82,245.66,11c3.48,4.85,6.48,9,12.32,9s8.84-4.19,12.31-9C274,5.82,278.15,0,286.65,0S299.32,5.82,303,11c3.47,4.85,6.48,9,12.32,9Z"/><path class="cls-4" d="M315.32,44c-8.49,0-12.67-5.82-16.35-11-3.48-4.85-6.48-9-12.32-9s-8.85,4.19-12.32,9c-3.69,5.14-7.86,11-16.35,11s-12.67-5.82-16.35-11c-3.48-4.85-6.48-9-12.32-9s-8.84,4.19-12.32,9c-3.68,5.14-7.85,11-16.35,11S188,38.18,184.29,33c-3.47-4.85-6.47-9-12.31-9s-8.84,4.19-12.32,9c-3.68,5.14-7.85,11-16.35,11S130.64,38.18,127,33c-3.47-4.85-6.47-9-12.31-9s-8.84,4.19-12.32,9C98.65,38.18,94.48,44,86,44S73.32,38.18,69.64,33c-3.47-4.85-6.48-9-12.31-9S48.49,28.19,45,33c-3.68,5.14-7.85,11-16.35,11S16,38.18,12.32,33C8.84,28.19,5.84,24,0,24V20c8.5,0,12.67,5.82,16.35,11,3.47,4.85,6.48,9,12.31,9S37.51,35.81,41,31c3.68-5.14,7.85-11,16.35-11S70,25.82,73.67,31c3.48,4.85,6.48,9,12.32,9s8.84-4.19,12.31-9c3.68-5.14,7.85-11,16.35-11S127.31,25.82,131,31c3.47,4.85,6.47,9,12.31,9s8.84-4.19,12.32-9c3.68-5.14,7.85-11,16.35-11s12.66,5.82,16.34,11c3.48,4.85,6.48,9,12.32,9s8.84-4.19,12.32-9c3.68-5.14,7.86-11,16.35-11S242,25.82,245.66,31c3.48,4.85,6.48,9,12.32,9s8.84-4.19,12.31-9c3.69-5.14,7.86-11,16.36-11S299.32,25.82,303,31c3.47,4.85,6.48,9,12.32,9Z"/><path class="cls-4" d="M315.32,64c-8.49,0-12.67-5.82-16.35-11-3.48-4.85-6.48-9-12.32-9s-8.85,4.19-12.32,9c-3.69,5.14-7.86,11-16.35,11s-12.67-5.82-16.35-11c-3.48-4.85-6.48-9-12.32-9s-8.84,4.19-12.32,9c-3.68,5.14-7.85,11-16.35,11S188,58.18,184.29,53c-3.47-4.85-6.47-9-12.31-9s-8.84,4.19-12.32,9c-3.68,5.14-7.85,11-16.35,11S130.64,58.18,127,53c-3.47-4.85-6.47-9-12.31-9s-8.84,4.19-12.32,9C98.65,58.18,94.48,64,86,64S73.32,58.18,69.64,53c-3.47-4.85-6.48-9-12.31-9S48.49,48.19,45,53c-3.68,5.14-7.85,11-16.35,11S16,58.18,12.32,53C8.84,48.19,5.84,44,0,44V40c8.5,0,12.67,5.82,16.35,11,3.47,4.85,6.48,9,12.31,9S37.51,55.81,41,51c3.68-5.14,7.85-11,16.35-11S70,45.82,73.67,51c3.48,4.85,6.48,9,12.32,9s8.84-4.19,12.31-9c3.68-5.14,7.85-11,16.35-11S127.31,45.82,131,51c3.47,4.85,6.47,9,12.31,9s8.84-4.19,12.32-9c3.68-5.14,7.85-11,16.35-11s12.66,5.82,16.34,11c3.48,4.85,6.48,9,12.32,9s8.84-4.19,12.32-9c3.68-5.14,7.86-11,16.35-11S242,45.82,245.66,51c3.48,4.85,6.48,9,12.32,9s8.84-4.19,12.31-9c3.69-5.14,7.86-11,16.36-11S299.32,45.82,303,51c3.47,4.85,6.48,9,12.32,9Z"/><path class="cls-4" d="M315.32,84c-8.49,0-12.67-5.82-16.35-11-3.48-4.85-6.48-9-12.32-9s-8.85,4.19-12.32,9c-3.69,5.14-7.86,11-16.35,11s-12.67-5.82-16.35-11c-3.48-4.85-6.48-9-12.32-9s-8.84,4.19-12.32,9c-3.68,5.14-7.85,11-16.35,11S188,78.18,184.29,73c-3.47-4.85-6.47-9-12.31-9s-8.84,4.19-12.32,9c-3.68,5.14-7.85,11-16.35,11S130.64,78.18,127,73c-3.47-4.85-6.47-9-12.31-9s-8.84,4.19-12.32,9C98.65,78.18,94.48,84,86,84S73.32,78.18,69.64,73c-3.47-4.85-6.48-9-12.31-9S48.49,68.19,45,73c-3.68,5.14-7.85,11-16.35,11S16,78.18,12.32,73C8.84,68.19,5.84,64,0,64V60c8.5,0,12.67,5.82,16.35,11,3.47,4.85,6.48,9,12.31,9S37.51,75.81,41,71c3.68-5.14,7.85-11,16.35-11S70,65.82,73.67,71c3.48,4.85,6.48,9,12.32,9s8.84-4.19,12.31-9c3.68-5.14,7.85-11,16.35-11S127.31,65.82,131,71c3.47,4.85,6.47,9,12.31,9s8.84-4.19,12.32-9c3.68-5.14,7.85-11,16.35-11s12.66,5.82,16.34,11c3.48,4.85,6.48,9,12.32,9s8.84-4.19,12.32-9c3.68-5.14,7.86-11,16.35-11S242,65.82,245.66,71c3.48,4.85,6.48,9,12.32,9s8.84-4.19,12.31-9c3.69-5.14,7.86-11,16.36-11S299.32,65.82,303,71c3.47,4.85,6.48,9,12.32,9Z"/><path class="cls-4" d="M315.32,104c-8.49,0-12.67-5.82-16.35-11-3.48-4.85-6.48-9-12.32-9s-8.85,4.19-12.32,9c-3.69,5.14-7.86,11-16.35,11s-12.67-5.82-16.35-11c-3.48-4.85-6.48-9-12.32-9s-8.84,4.19-12.32,9c-3.68,5.14-7.85,11-16.35,11S188,98.18,184.29,93c-3.47-4.85-6.47-9-12.31-9s-8.84,4.19-12.32,9c-3.68,5.14-7.85,11-16.35,11S130.64,98.18,127,93c-3.47-4.85-6.47-9-12.31-9s-8.84,4.19-12.32,9c-3.68,5.14-7.85,11-16.34,11S73.32,98.18,69.64,93c-3.47-4.85-6.48-9-12.31-9S48.49,88.19,45,93c-3.68,5.14-7.85,11-16.35,11S16,98.18,12.32,93C8.84,88.19,5.84,84,0,84V80c8.5,0,12.67,5.82,16.35,11,3.47,4.85,6.48,9,12.31,9S37.51,95.81,41,91c3.68-5.14,7.85-11,16.35-11S70,85.82,73.67,91c3.48,4.85,6.48,9,12.32,9s8.84-4.19,12.31-9c3.68-5.14,7.85-11,16.35-11S127.31,85.82,131,91c3.47,4.85,6.47,9,12.31,9s8.84-4.19,12.32-9c3.68-5.14,7.85-11,16.35-11s12.66,5.82,16.34,11c3.48,4.85,6.48,9,12.32,9s8.84-4.19,12.32-9c3.68-5.14,7.86-11,16.35-11S242,85.82,245.66,91c3.48,4.85,6.48,9,12.32,9s8.84-4.19,12.31-9c3.69-5.14,7.86-11,16.36-11S299.32,85.82,303,91c3.47,4.85,6.48,9,12.32,9Z"/><path class="cls-4" d="M315.32,124c-8.49,0-12.67-5.82-16.35-11-3.48-4.85-6.48-9-12.32-9s-8.85,4.19-12.32,9c-3.69,5.14-7.86,11-16.35,11s-12.67-5.82-16.35-11c-3.48-4.85-6.48-9-12.32-9s-8.84,4.19-12.32,9c-3.68,5.14-7.85,11-16.35,11s-12.67-5.82-16.35-11c-3.47-4.85-6.47-9-12.31-9s-8.84,4.19-12.32,9c-3.68,5.14-7.85,11-16.35,11s-12.67-5.82-16.35-11c-3.47-4.85-6.47-9-12.31-9s-8.84,4.19-12.32,9c-3.68,5.14-7.85,11-16.34,11s-12.67-5.82-16.35-11c-3.47-4.85-6.48-9-12.31-9s-8.84,4.19-12.32,9c-3.68,5.14-7.85,11-16.35,11S16,118.18,12.32,113c-3.48-4.85-6.48-9-12.32-9v-4c8.5,0,12.67,5.82,16.35,11,3.47,4.85,6.48,9,12.31,9s8.85-4.19,12.32-9c3.68-5.14,7.85-11,16.35-11S70,105.82,73.67,111c3.48,4.85,6.48,9,12.32,9s8.84-4.19,12.31-9c3.68-5.14,7.85-11,16.35-11s12.66,5.82,16.35,11c3.47,4.85,6.47,9,12.31,9s8.84-4.19,12.32-9c3.68-5.14,7.85-11,16.35-11s12.66,5.82,16.34,11c3.48,4.85,6.48,9,12.32,9s8.84-4.19,12.32-9c3.68-5.14,7.86-11,16.35-11s12.67,5.82,16.35,11c3.48,4.85,6.48,9,12.32,9s8.84-4.19,12.31-9c3.69-5.14,7.86-11,16.36-11s12.67,5.82,16.35,11c3.47,4.85,6.48,9,12.32,9Z"/><path class="cls-4" d="M315.32,144c-8.49,0-12.67-5.82-16.35-11-3.48-4.85-6.48-9-12.32-9s-8.85,4.19-12.32,9c-3.69,5.14-7.86,11-16.35,11s-12.67-5.82-16.35-11c-3.48-4.85-6.48-9-12.32-9s-8.84,4.19-12.32,9c-3.68,5.14-7.85,11-16.35,11s-12.67-5.82-16.35-11c-3.47-4.85-6.47-9-12.31-9s-8.84,4.19-12.32,9c-3.68,5.14-7.85,11-16.35,11s-12.67-5.82-16.35-11c-3.47-4.85-6.47-9-12.31-9s-8.84,4.19-12.32,9c-3.68,5.14-7.85,11-16.34,11s-12.67-5.82-16.35-11c-3.47-4.85-6.48-9-12.31-9s-8.84,4.19-12.32,9c-3.68,5.14-7.85,11-16.35,11S16,138.18,12.32,133c-3.48-4.85-6.48-9-12.32-9v-4c8.5,0,12.67,5.82,16.35,11,3.47,4.85,6.48,9,12.31,9s8.85-4.19,12.32-9c3.68-5.14,7.85-11,16.35-11S70,125.82,73.67,131c3.48,4.85,6.48,9,12.32,9s8.84-4.19,12.31-9c3.68-5.14,7.85-11,16.35-11s12.66,5.82,16.35,11c3.47,4.85,6.47,9,12.31,9s8.84-4.19,12.32-9c3.68-5.14,7.85-11,16.35-11s12.66,5.82,16.34,11c3.48,4.85,6.48,9,12.32,9s8.84-4.19,12.32-9c3.68-5.14,7.86-11,16.35-11s12.67,5.82,16.35,11c3.48,4.85,6.48,9,12.32,9s8.84-4.19,12.31-9c3.69-5.14,7.86-11,16.36-11s12.67,5.82,16.35,11c3.47,4.85,6.48,9,12.32,9Z"/><path class="cls-4" d="M315.32,164c-8.49,0-12.67-5.82-16.35-11-3.48-4.85-6.48-9-12.32-9s-8.85,4.19-12.32,9c-3.69,5.14-7.86,11-16.35,11s-12.67-5.82-16.35-11c-3.48-4.85-6.48-9-12.32-9s-8.84,4.19-12.32,9c-3.68,5.14-7.85,11-16.35,11s-12.67-5.82-16.35-11c-3.47-4.85-6.47-9-12.31-9s-8.84,4.19-12.32,9c-3.68,5.14-7.85,11-16.35,11s-12.67-5.82-16.35-11c-3.47-4.85-6.47-9-12.31-9s-8.84,4.19-12.32,9c-3.68,5.14-7.85,11-16.34,11s-12.67-5.82-16.35-11c-3.47-4.85-6.48-9-12.31-9s-8.84,4.19-12.32,9c-3.68,5.14-7.85,11-16.35,11S16,158.18,12.32,153c-3.48-4.85-6.48-9-12.32-9v-4c8.5,0,12.67,5.82,16.35,11,3.47,4.85,6.48,9,12.31,9s8.85-4.19,12.32-9c3.68-5.14,7.85-11,16.35-11S70,145.82,73.67,151c3.48,4.85,6.48,9,12.32,9s8.84-4.19,12.31-9c3.68-5.14,7.85-11,16.35-11s12.66,5.82,16.35,11c3.47,4.85,6.47,9,12.31,9s8.84-4.19,12.32-9c3.68-5.14,7.85-11,16.35-11s12.66,5.82,16.34,11c3.48,4.85,6.48,9,12.32,9s8.84-4.19,12.32-9c3.68-5.14,7.86-11,16.35-11s12.67,5.82,16.35,11c3.48,4.85,6.48,9,12.32,9s8.84-4.19,12.31-9c3.69-5.14,7.86-11,16.36-11s12.67,5.82,16.35,11c3.47,4.85,6.48,9,12.32,9Z"/></g><polygon class="cls-5" points="10.39 82.35 10.39 108.75 85.85 33.25 61.81 33.25 10.39 82.35"/><polygon class="cls-6" points="10.39 78.44 10.39 105.16 82.31 33.25 55.59 33.25 10.39 78.44"/><polygon class="cls-6" points="254 129.24 227.28 129.24 299.19 57.33 299.19 84.05 254 129.24"/><rect class="cls-7" x="146.76" y="21.79" width="16" height="11.46"/><polygon class="cls-6" points="162.76 21.79 196.03 8.52 196.03 33.25 162.76 33.25 162.76 21.79"/><polygon class="cls-6" points="146.76 21.79 113.49 8.52 113.49 33.25 146.76 33.25 146.76 21.79"/><polygon class="cls-7" points="146.76 26.59 133.22 21.19 133.22 31.25 146.76 31.25 146.76 26.59"/><polygon class="cls-7" points="162.76 26.59 176.29 21.19 176.29 31.25 162.76 31.25 162.76 26.59"/></g></g></svg>