<svg xmlns="http://www.w3.org/2000/svg" xmlns:xlink="http://www.w3.org/1999/xlink" viewBox="0 0 174.19 299.42"><defs><style>.cls-1{fill:none;}.cls-2{fill:#ffbc03;}.cls-3{clip-path:url(#clip-path);}.cls-4{fill:#f9ca55;}.cls-5{fill:#ffa506;}.cls-6{opacity:0.1;}.cls-7{fill:#46c178;}</style><clipPath id="clip-path"><rect class="cls-1" x="24.57" y="59.58" width="123.08" height="198.96"/></clipPath></defs><title>Ресурс 7</title><g id="Слой_2" data-name="Слой 2"><g id="OBJECTS"><rect class="cls-2" x="24.57" y="59.58" width="123.08" height="198.96"/><g class="cls-3"><rect class="cls-4" x="-6.75" y="40.27" width="102.48" height="9.21" transform="translate(-17.96 35.22) rotate(-36.46)"/><rect class="cls-4" x="-3.64" y="57.97" width="102.48" height="9.21" transform="translate(-27.87 40.53) rotate(-36.46)"/><rect class="cls-4" x="-12.52" y="62.23" width="162.85" height="9.21" transform="translate(-26.23 54.03) rotate(-36.46)"/><rect class="cls-4" x="-13.2" y="82.73" width="162.86" height="9.21" transform="translate(-38.54 57.63) rotate(-36.46)"/><rect class="cls-4" x="-13.79" y="89.69" width="199.35" height="9.21" transform="translate(-39.22 69.48) rotate(-36.46)"/><rect class="cls-4" x="-16.77" y="111.89" width="199.35" height="9.21" transform="matrix(0.8, -0.59, 0.59, 0.8, -53, 72.06)"/><rect class="cls-4" x="-13.79" y="129.69" width="199.35" height="9.21" transform="translate(-62.99 77.31) rotate(-36.46)"/><rect class="cls-4" x="-16.77" y="151.89" width="199.35" height="9.21" transform="translate(-76.77 79.89) rotate(-36.46)"/><rect class="cls-4" x="-13.79" y="169.69" width="199.35" height="9.21" transform="translate(-86.76 85.14) rotate(-36.46)"/><rect class="cls-4" x="-16.77" y="191.89" width="199.35" height="9.21" transform="translate(-100.54 87.72) rotate(-36.46)"/><rect class="cls-4" x="-13.79" y="209.69" width="199.35" height="9.21" transform="translate(-110.53 92.97) rotate(-36.46)"/><rect class="cls-4" x="-16.77" y="231.89" width="199.35" height="9.21" transform="translate(-124.3 95.54) rotate(-36.46)"/><rect class="cls-4" x="45.21" y="230.25" width="133.94" height="9.21" transform="translate(-117.6 112.62) rotate(-36.46)"/><rect class="cls-4" x="46.35" y="249.41" width="133.94" height="9.21" transform="translate(-128.77 117.05) rotate(-36.46)"/><rect class="cls-4" x="106.46" y="250.08" width="66.05" height="9.21" transform="translate(-124.04 132.73) rotate(-36.46)"/><rect class="cls-4" x="111.87" y="266.09" width="66.05" height="9.2" transform="translate(-132.5 139.08) rotate(-36.46)"/></g><rect class="cls-5" x="20.25" y="46.47" width="131.72" height="26.22"/><rect class="cls-6" x="24.57" y="72.69" width="123.08" height="11.45"/><rect class="cls-7" x="76.29" y="46.47" width="19.64" height="212.07"/><path class="cls-7" d="M128.89,12.9c-4-5.83-11.65-13.77-19.56-12.82C102.47.9,98,7.05,94.7,12.53c-6,9.93-10.16,21.48-13.41,32.61a4.62,4.62,0,0,0,.33,3.63,4,4,0,0,0,4.49,2.7c12-1.29,24.12-2.93,35.78-6,5.61-1.47,11.61-3.29,13.92-9.07C138.73,29.07,132.87,18.65,128.89,12.9Zm-2.56,20.3c-.12.09-.28.19-.49.32a14.67,14.67,0,0,1-2.55,1.08A74.65,74.65,0,0,1,114.58,37c-7,1.59-14.21,2.76-21.38,3.68a150.49,150.49,0,0,1,6.92-17.07c2.07-4.29,4.58-9.83,8.54-12.76,1.47-1.1,1.36-1.11,3.21-.3,3.42,1.51,6.2,4.48,8.38,7.44S127.82,29.29,126.33,33.2Z"/><path class="cls-7" d="M35.36,36.4c2.31,5.78,8.31,7.6,13.91,9.07,11.67,3.07,23.8,4.71,35.78,6a4,4,0,0,0,4.5-2.7,4.62,4.62,0,0,0,.32-3.63C86.63,34,82.51,22.46,76.46,12.53,73.12,7.05,68.7.9,61.84.08c-7.92-.95-15.52,7-19.56,12.82S32.43,29.07,35.36,36.4ZM50.91,18c2.18-3,5-5.93,8.39-7.44,1.84-.81,1.73-.8,3.21.3C66.46,13.74,69,19.28,71,23.57A148.73,148.73,0,0,1,78,40.64c-7.18-.92-14.35-2.09-21.38-3.68a75.35,75.35,0,0,1-8.72-2.36,14.91,14.91,0,0,1-2.54-1.08,4.2,4.2,0,0,1-.49-.32C43.34,29.29,48.75,20.88,50.91,18Z"/><rect class="cls-7" x="24.32" y="147.92" width="123.59" height="19.64"/></g></g></svg>