<svg xmlns="http://www.w3.org/2000/svg" xmlns:xlink="http://www.w3.org/1999/xlink" viewBox="0 0 209.48 145.19"><defs><style>.cls-1{fill:none;}.cls-2{fill:#b8d338;}.cls-3{clip-path:url(#clip-path);}.cls-4{fill:#eaf995;}.cls-5{fill:#afba1a;}.cls-6{opacity:0.15;}.cls-7{fill:#ed1b24;}</style><clipPath id="clip-path"><rect class="cls-1" x="34.74" y="39.96" width="150.15" height="96"/></clipPath></defs><title>Ресурс 6</title><g id="Слой_2" data-name="Слой 2"><g id="OBJECTS"><rect class="cls-2" x="34.74" y="39.96" width="150.15" height="96"/><g class="cls-3"><polygon class="cls-4" points="42.8 47.09 48.12 47.09 41.17 38.65 46.21 38.65 34.74 24.72 23.27 38.65 28.32 38.65 21.36 47.09 26.68 47.09 20 55.19 34.74 55.19 49.48 55.19 42.8 47.09"/><polygon class="cls-4" points="82.8 47.09 88.12 47.09 81.17 38.65 86.21 38.65 74.74 24.72 63.27 38.65 68.31 38.65 61.36 47.09 66.68 47.09 60 55.19 74.74 55.19 89.48 55.19 82.8 47.09"/><polygon class="cls-4" points="122.8 47.09 128.12 47.09 121.17 38.65 126.21 38.65 114.74 24.72 103.28 38.65 108.31 38.65 101.36 47.09 106.68 47.09 100 55.19 114.74 55.19 129.48 55.19 122.8 47.09"/><polygon class="cls-4" points="162.8 47.09 168.12 47.09 161.17 38.65 166.21 38.65 154.74 24.72 143.28 38.65 148.31 38.65 141.36 47.09 146.68 47.09 140 55.19 154.74 55.19 169.48 55.19 162.8 47.09"/><polygon class="cls-4" points="202.8 47.09 208.12 47.09 201.17 38.65 206.21 38.65 194.74 24.72 183.28 38.65 188.31 38.65 181.36 47.09 186.68 47.09 180 55.19 194.74 55.19 209.48 55.19 202.8 47.09"/><polygon class="cls-4" points="22.8 77.08 28.12 77.08 21.17 68.65 26.21 68.65 14.74 54.72 3.27 68.65 8.31 68.65 1.36 77.08 6.68 77.08 0 85.19 14.74 85.19 29.48 85.19 22.8 77.08"/><polygon class="cls-4" points="62.8 77.08 68.12 77.08 61.17 68.65 66.21 68.65 54.74 54.72 43.27 68.65 48.31 68.65 41.36 77.08 46.68 77.08 40 85.19 54.74 85.19 69.48 85.19 62.8 77.08"/><polygon class="cls-4" points="102.8 77.08 108.12 77.08 101.17 68.65 106.21 68.65 94.74 54.72 83.28 68.65 88.31 68.65 81.36 77.08 86.68 77.08 80 85.19 94.74 85.19 109.48 85.19 102.8 77.08"/><polygon class="cls-4" points="142.8 77.08 148.12 77.08 141.17 68.65 146.21 68.65 134.74 54.72 123.28 68.65 128.31 68.65 121.36 77.08 126.68 77.08 120 85.19 134.74 85.19 149.48 85.19 142.8 77.08"/><polygon class="cls-4" points="182.8 77.08 188.12 77.08 181.17 68.65 186.21 68.65 174.74 54.72 163.28 68.65 168.31 68.65 161.36 77.08 166.68 77.08 160 85.19 174.74 85.19 189.48 85.19 182.8 77.08"/><polygon class="cls-4" points="42.8 107.08 48.12 107.08 41.17 98.65 46.21 98.65 34.74 84.72 23.27 98.65 28.32 98.65 21.36 107.08 26.68 107.08 20 115.19 34.74 115.19 49.48 115.19 42.8 107.08"/><polygon class="cls-4" points="82.8 107.08 88.12 107.08 81.17 98.65 86.21 98.65 74.74 84.72 63.27 98.65 68.31 98.65 61.36 107.08 66.68 107.08 60 115.19 74.74 115.19 89.48 115.19 82.8 107.08"/><polygon class="cls-4" points="122.8 107.08 128.12 107.08 121.17 98.65 126.21 98.65 114.74 84.72 103.28 98.65 108.31 98.65 101.36 107.08 106.68 107.08 100 115.19 114.74 115.19 129.48 115.19 122.8 107.08"/><polygon class="cls-4" points="162.8 107.08 168.12 107.08 161.17 98.65 166.21 98.65 154.74 84.72 143.28 98.65 148.31 98.65 141.36 107.08 146.68 107.08 140 115.19 154.74 115.19 169.48 115.19 162.8 107.08"/><polygon class="cls-4" points="202.8 107.08 208.12 107.08 201.17 98.65 206.21 98.65 194.74 84.72 183.28 98.65 188.31 98.65 181.36 107.08 186.68 107.08 180 115.19 194.74 115.19 209.48 115.19 202.8 107.08"/><polygon class="cls-4" points="22.8 137.09 28.12 137.09 21.17 128.65 26.21 128.65 14.74 114.72 3.27 128.65 8.31 128.65 1.36 137.09 6.68 137.09 0 145.19 14.74 145.19 29.48 145.19 22.8 137.09"/><polygon class="cls-4" points="62.8 137.09 68.12 137.09 61.17 128.65 66.21 128.65 54.74 114.72 43.27 128.65 48.31 128.65 41.36 137.09 46.68 137.09 40 145.19 54.74 145.19 69.48 145.19 62.8 137.09"/><polygon class="cls-4" points="102.8 137.09 108.12 137.09 101.17 128.65 106.21 128.65 94.74 114.72 83.28 128.65 88.31 128.65 81.36 137.09 86.68 137.09 80 145.19 94.74 145.19 109.48 145.19 102.8 137.09"/><polygon class="cls-4" points="142.8 137.09 148.12 137.09 141.17 128.65 146.21 128.65 134.74 114.72 123.28 128.65 128.31 128.65 121.36 137.09 126.68 137.09 120 145.19 134.74 145.19 149.48 145.19 142.8 137.09"/><polygon class="cls-4" points="182.8 137.09 188.12 137.09 181.17 128.65 186.21 128.65 174.74 114.72 163.28 128.65 168.31 128.65 161.36 137.09 166.68 137.09 160 145.19 174.74 145.19 189.48 145.19 182.8 137.09"/></g><rect class="cls-5" x="27.74" y="39.96" width="163.15" height="24.08"/><rect class="cls-6" x="34.74" y="64.04" width="150.15" height="11.45"/><rect class="cls-7" x="99.07" y="39.96" width="21.5" height="96"/><path class="cls-7" d="M109.87,43.46H106.5l-.2-3.37a67.14,67.14,0,0,1,1.86-18.53C111.54,8.39,119,1,129.77.08,130.39,0,131,0,131.59,0c9.36,0,15.9,6.51,15.9,15.83,0,6.81-3.46,13.63-9.49,18.71C133.17,38.61,124.37,43.46,109.87,43.46ZM131.59,7.15c-.4,0-.82,0-1.24,0-14.76,1.22-16.75,20.87-16.94,29,10.22-.66,16.46-4.15,20-7.12,4.35-3.66,6.94-8.61,6.94-13.24C140.34,11.63,138,7.15,131.59,7.15Z"/><path class="cls-7" d="M113.14,43.46h-3.37c-14.51,0-23.31-4.85-28.14-8.92-6-5.08-9.49-11.9-9.49-18.71C72.14,6.51,78.68,0,88.05,0c.59,0,1.2,0,1.82.08,10.76.88,18.23,8.31,21.61,21.48a67.14,67.14,0,0,1,1.86,18.53ZM88.05,7.15c-6.46,0-8.76,4.48-8.76,8.68,0,4.63,2.6,9.58,6.95,13.24,3.53,3,9.76,6.46,20,7.12C106,28.06,104,8.42,89.28,7.2,88.86,7.17,88.45,7.15,88.05,7.15Z"/></g></g></svg>