<svg xmlns="http://www.w3.org/2000/svg" xmlns:xlink="http://www.w3.org/1999/xlink" viewBox="0 0 113.33 131.25"><defs><style>.cls-1{fill:none;}.cls-2{fill:#ed1b24;}.cls-3{clip-path:url(#clip-path);}.cls-4{fill:#f4515e;}.cls-5{fill:#db0b1b;}.cls-6{fill:#b8d338;}.cls-7{opacity:0.1;}</style><clipPath id="clip-path"><rect class="cls-1" x="10" y="41.52" width="81.13" height="81.13"/></clipPath></defs><title>Ресурс 5</title><g id="Слой_2" data-name="Слой 2"><g id="OBJECTS"><rect class="cls-2" x="10" y="41.52" width="81.13" height="81.13"/><g class="cls-3"><path class="cls-4" d="M18.13,40.59a9.07,9.07,0,1,1-9.06-9.07A9.06,9.06,0,0,1,18.13,40.59Z"/><path class="cls-4" d="M45.33,40.59a9.07,9.07,0,1,1-9.06-9.07A9.06,9.06,0,0,1,45.33,40.59Z"/><path class="cls-4" d="M72.53,40.59a9.07,9.07,0,1,1-9.06-9.07A9.06,9.06,0,0,1,72.53,40.59Z"/><path class="cls-4" d="M99.73,40.59a9.07,9.07,0,1,1-9.06-9.07A9.06,9.06,0,0,1,99.73,40.59Z"/><path class="cls-4" d="M31.73,67.79a9.07,9.07,0,1,1-9.06-9.07A9.06,9.06,0,0,1,31.73,67.79Z"/><path class="cls-4" d="M58.93,67.79a9.07,9.07,0,1,1-9.06-9.07A9.06,9.06,0,0,1,58.93,67.79Z"/><path class="cls-4" d="M86.13,67.79a9.07,9.07,0,1,1-9.06-9.07A9.06,9.06,0,0,1,86.13,67.79Z"/><path class="cls-4" d="M113.33,67.79a9.07,9.07,0,1,1-9.06-9.07A9.06,9.06,0,0,1,113.33,67.79Z"/><path class="cls-4" d="M18.13,95a9.07,9.07,0,1,1-9.06-9.07A9.06,9.06,0,0,1,18.13,95Z"/><path class="cls-4" d="M45.33,95a9.07,9.07,0,1,1-9.06-9.07A9.06,9.06,0,0,1,45.33,95Z"/><path class="cls-4" d="M72.53,95a9.07,9.07,0,1,1-9.06-9.07A9.06,9.06,0,0,1,72.53,95Z"/><path class="cls-4" d="M99.73,95a9.07,9.07,0,1,1-9.06-9.07A9.06,9.06,0,0,1,99.73,95Z"/><circle class="cls-4" cx="22.67" cy="122.19" r="9.07"/><path class="cls-4" d="M58.93,122.19a9.07,9.07,0,1,1-9.06-9.07A9.06,9.06,0,0,1,58.93,122.19Z"/><path class="cls-4" d="M86.13,122.19a9.07,9.07,0,1,1-9.06-9.07A9.06,9.06,0,0,1,86.13,122.19Z"/><path class="cls-4" d="M113.33,122.19a9.07,9.07,0,1,1-9.06-9.07A9.06,9.06,0,0,1,113.33,122.19Z"/></g><rect class="cls-5" x="6.96" y="33.38" width="87.21" height="23.03"/><path class="cls-6" d="M50.49,36.46H47.66l-.17-2.82a56.91,56.91,0,0,1,1.56-15.55C51.89,7,58.16.81,67.18.06Q68,0,68.71,0c7.86,0,13.34,5.46,13.34,13.28,0,5.72-2.9,11.44-8,15.7C70,32.39,62.66,36.46,50.49,36.46ZM68.71,6c-.34,0-.68,0-1,0-12.38,1-14.05,17.5-14.21,24.32,8.57-.55,13.81-3.48,16.77-6,3.65-3.07,5.82-7.23,5.82-11.11C76.05,9.76,74.12,6,68.71,6Z"/><path class="cls-6" d="M53.23,36.46H50.4c-12.16,0-19.55-4.07-23.6-7.48-5.06-4.26-8-10-8-15.7C18.84,5.46,24.33,0,32.19,0c.49,0,1,0,1.52.06,9,.75,15.3,7,18.13,18A56,56,0,0,1,53.4,33.64ZM32.19,6c-5.42,0-7.35,3.76-7.35,7.28,0,3.88,2.18,8,5.83,11.11,3,2.49,8.19,5.41,16.76,6C47.26,23.54,45.57,7.06,33.22,6,32.87,6,32.52,6,32.19,6Z"/><circle class="cls-6" cx="50.56" cy="32.11" r="10.75"/><rect class="cls-7" x="10" y="56.42" width="81.13" height="8.02"/><rect class="cls-6" x="39.81" y="34.83" width="21.5" height="87.82"/></g></g></svg>