<svg xmlns="http://www.w3.org/2000/svg" xmlns:xlink="http://www.w3.org/1999/xlink" viewBox="0 0 208.25 186.96"><defs><style>.cls-1{fill:none;}.cls-2{fill:#b8d338;}.cls-3{clip-path:url(#clip-path);}.cls-4{fill:#eaf995;}.cls-5{fill:#afba1a;}.cls-6{opacity:0.15;}.cls-7{fill:#ed1b24;}</style><clipPath id="clip-path"><rect class="cls-1" x="30.09" y="50.09" width="123.08" height="111.54"/></clipPath></defs><title>Ресурс 4</title><g id="Слой_2" data-name="Слой 2"><g id="OBJECTS"><rect class="cls-2" x="30.09" y="50.09" width="123.08" height="111.54"/><g class="cls-3"><path class="cls-4" d="M31.65,51.32l-7,1.79a1.73,1.73,0,0,0-.24.1l-5.22-3.1,5.24-3,.25.1,7,1.89a1.27,1.27,0,0,0,.65-2.46l-4.82-1.3,3.3-1.9a1.27,1.27,0,1,0-1.27-2.2l-3.3,1.9,1.3-4.83a1.27,1.27,0,1,0-2.45-.66l-1.89,7a1.17,1.17,0,0,0,0,.26l-5.23,3v-6a1.57,1.57,0,0,0,.21-.17l5.12-5.13a1.27,1.27,0,1,0-1.79-1.79L17.9,38.31V34.5a1.27,1.27,0,0,0-1.27-1.27h0a1.27,1.27,0,0,0-1.27,1.27v3.79l-3.51-3.51A1.27,1.27,0,1,0,10,36.57l5.13,5.13a.84.84,0,0,0,.18.15v6L10.21,44.8a2.34,2.34,0,0,0,0-.26l-1.79-7a1.27,1.27,0,1,0-2.47.63L7.15,43,3.87,41a1.27,1.27,0,1,0-1.29,2.19l3.27,1.94L1,46.41A1.26,1.26,0,0,0,.09,48a1.27,1.27,0,0,0,1.55.92l7-1.79A1.17,1.17,0,0,0,8.91,47l5.2,3.08-5.26,3A1,1,0,0,0,8.61,53l-7-1.89a1.27,1.27,0,1,0-.66,2.45l4.83,1.3L2.48,56.76A1.27,1.27,0,0,0,3.75,59L7,57.08,5.73,61.9a1.27,1.27,0,0,0,2.46.67l1.89-7a2,2,0,0,0,0-.26l5.22-3v6.05a.84.84,0,0,0-.18.15L10,63.63a1.27,1.27,0,0,0,1.8,1.8l3.51-3.52v3.77A1.27,1.27,0,0,0,16.61,67h0a1.27,1.27,0,0,0,1.27-1.28V61.89l3.54,3.54a1.27,1.27,0,0,0,1.79-1.8L18.11,58.5a1.57,1.57,0,0,0-.21-.17v-6l5.17,3.06a1.09,1.09,0,0,0,0,.26l1.79,7a1.27,1.27,0,0,0,2.47-.63l-1.24-4.84,3.26,1.93A1.27,1.27,0,1,0,30.69,57L27.43,55l4.84-1.23a1.27,1.27,0,0,0-.62-2.47Z"/><path class="cls-4" d="M81.65,51.32l-7,1.79a1.73,1.73,0,0,0-.24.1l-5.22-3.1,5.24-3,.25.1,7,1.89a1.27,1.27,0,0,0,.65-2.46l-4.82-1.3,3.3-1.9a1.27,1.27,0,1,0-1.27-2.2l-3.3,1.9,1.3-4.83a1.27,1.27,0,1,0-2.45-.66l-1.89,7a1.17,1.17,0,0,0,0,.26l-5.23,3v-6a1.57,1.57,0,0,0,.21-.17l5.12-5.13a1.27,1.27,0,1,0-1.79-1.79L67.9,38.31V34.5a1.27,1.27,0,0,0-1.27-1.27h0a1.27,1.27,0,0,0-1.27,1.27v3.79l-3.51-3.51A1.27,1.27,0,1,0,60,36.57l5.13,5.13a.84.84,0,0,0,.18.15v6L60.21,44.8a2.34,2.34,0,0,0,0-.26l-1.79-7a1.27,1.27,0,0,0-2.47.63L57.15,43l-3.28-2a1.27,1.27,0,0,0-1.29,2.19l3.27,1.94L51,46.41A1.26,1.26,0,0,0,50.09,48a1.27,1.27,0,0,0,1.55.92l7-1.79a1.17,1.17,0,0,0,.24-.09l5.2,3.08-5.26,3a1,1,0,0,0-.24-.09l-7-1.89a1.27,1.27,0,1,0-.66,2.45l4.83,1.3-3.29,1.89A1.27,1.27,0,0,0,53.75,59L57,57.08,55.73,61.9a1.27,1.27,0,0,0,2.46.67l1.89-7a2,2,0,0,0,0-.26l5.22-3v6.05a.84.84,0,0,0-.18.15L60,63.63a1.27,1.27,0,0,0,1.8,1.8l3.51-3.52v3.77A1.27,1.27,0,0,0,66.61,67h0a1.27,1.27,0,0,0,1.27-1.28V61.89l3.54,3.54a1.27,1.27,0,1,0,1.79-1.8L68.11,58.5a1.57,1.57,0,0,0-.21-.17v-6l5.17,3.06a1.09,1.09,0,0,0,0,.26l1.79,7a1.27,1.27,0,0,0,2.47-.63l-1.24-4.84,3.26,1.93A1.27,1.27,0,1,0,80.69,57L77.43,55l4.84-1.23a1.27,1.27,0,0,0-.62-2.47Z"/><path class="cls-4" d="M131.65,51.32l-7,1.79a1.73,1.73,0,0,0-.24.1l-5.22-3.1,5.24-3,.25.1,7,1.89a1.27,1.27,0,0,0,.65-2.46l-4.82-1.3,3.3-1.9a1.27,1.27,0,1,0-1.27-2.2l-3.3,1.9,1.3-4.83a1.27,1.27,0,1,0-2.45-.66l-1.89,7a1.17,1.17,0,0,0,0,.26l-5.23,3v-6a1.57,1.57,0,0,0,.21-.17l5.12-5.13a1.27,1.27,0,1,0-1.79-1.79l-3.54,3.53V34.5a1.27,1.27,0,0,0-1.27-1.27h0a1.27,1.27,0,0,0-1.27,1.27v3.79l-3.51-3.51a1.27,1.27,0,0,0-1.8,1.79l5.13,5.13a.84.84,0,0,0,.18.15v6l-5.13-3.05a2.34,2.34,0,0,0,0-.26l-1.79-7a1.27,1.27,0,0,0-2.47.63L107.15,43l-3.28-2a1.27,1.27,0,1,0-1.29,2.19l3.27,1.94L101,46.41a1.26,1.26,0,0,0-.92,1.54,1.27,1.27,0,0,0,1.55.92l7-1.79a1.17,1.17,0,0,0,.24-.09l5.2,3.08-5.26,3a1,1,0,0,0-.24-.09l-7-1.89a1.27,1.27,0,1,0-.66,2.45l4.83,1.3-3.29,1.89A1.27,1.27,0,0,0,103.75,59L107,57.08l-1.31,4.82a1.27,1.27,0,0,0,2.46.67l1.89-7a2,2,0,0,0,0-.26l5.22-3v6.05a.84.84,0,0,0-.18.15L110,63.63a1.27,1.27,0,0,0,1.8,1.8l3.51-3.52v3.77A1.27,1.27,0,0,0,116.61,67h0a1.27,1.27,0,0,0,1.27-1.28V61.89l3.54,3.54a1.27,1.27,0,1,0,1.79-1.8l-5.12-5.13a1.57,1.57,0,0,0-.21-.17v-6l5.17,3.06a1.09,1.09,0,0,0,0,.26l1.79,7a1.27,1.27,0,1,0,2.47-.63l-1.24-4.84,3.26,1.93a1.27,1.27,0,1,0,1.3-2.18L127.43,55l4.84-1.23a1.27,1.27,0,0,0-.62-2.47Z"/><path class="cls-4" d="M181.65,51.32l-7,1.79a1.73,1.73,0,0,0-.24.1l-5.22-3.1,5.24-3,.25.1,7,1.89a1.27,1.27,0,0,0,.65-2.46l-4.82-1.3,3.3-1.9a1.27,1.27,0,1,0-1.27-2.2l-3.3,1.9,1.3-4.83a1.27,1.27,0,1,0-2.45-.66l-1.89,7a1.17,1.17,0,0,0,0,.26l-5.23,3v-6a1.57,1.57,0,0,0,.21-.17l5.12-5.13a1.27,1.27,0,0,0-1.79-1.79l-3.54,3.53V34.5a1.27,1.27,0,0,0-1.27-1.27h0a1.27,1.27,0,0,0-1.27,1.27v3.79l-3.51-3.51a1.27,1.27,0,1,0-1.8,1.79l5.13,5.13a.84.84,0,0,0,.18.15v6l-5.13-3.05a2.34,2.34,0,0,0,0-.26l-1.79-7a1.27,1.27,0,0,0-2.47.63L157.15,43l-3.28-2a1.27,1.27,0,1,0-1.29,2.19l3.27,1.94L151,46.41a1.26,1.26,0,0,0-.92,1.54,1.27,1.27,0,0,0,1.55.92l7-1.79a1.17,1.17,0,0,0,.24-.09l5.2,3.08-5.26,3a1,1,0,0,0-.24-.09l-7-1.89a1.27,1.27,0,1,0-.66,2.45l4.83,1.3-3.29,1.89A1.27,1.27,0,0,0,153.75,59L157,57.08l-1.31,4.82a1.27,1.27,0,0,0,2.46.67l1.89-7a2,2,0,0,0,0-.26l5.22-3v6.05a.84.84,0,0,0-.18.15L160,63.63a1.27,1.27,0,0,0,1.8,1.8l3.51-3.52v3.77A1.27,1.27,0,0,0,166.61,67h0a1.27,1.27,0,0,0,1.27-1.28V61.89l3.54,3.54a1.27,1.27,0,0,0,1.79-1.8l-5.12-5.13a1.57,1.57,0,0,0-.21-.17v-6l5.17,3.06a1.09,1.09,0,0,0,0,.26l1.79,7a1.27,1.27,0,1,0,2.47-.63l-1.24-4.84,3.26,1.93a1.27,1.27,0,1,0,1.3-2.18L177.43,55l4.84-1.23a1.27,1.27,0,0,0-.62-2.47Z"/><path class="cls-4" d="M56.65,81.32l-7,1.79a1.73,1.73,0,0,0-.24.1l-5.22-3.1,5.24-3,.25.1,7,1.89a1.27,1.27,0,0,0,.65-2.46l-4.82-1.3,3.3-1.9a1.27,1.27,0,1,0-1.27-2.2l-3.3,1.9,1.3-4.83a1.27,1.27,0,1,0-2.45-.66l-1.89,7a1.17,1.17,0,0,0,0,.26l-5.23,3v-6a1.57,1.57,0,0,0,.21-.17l5.12-5.13a1.27,1.27,0,0,0-1.79-1.79L42.9,68.31V64.5a1.27,1.27,0,0,0-1.27-1.27h0a1.27,1.27,0,0,0-1.27,1.27v3.79l-3.51-3.51A1.27,1.27,0,0,0,35,66.57l5.13,5.13a.84.84,0,0,0,.18.15v6l-5.13-3a2.34,2.34,0,0,0,0-.26l-1.79-7a1.27,1.27,0,1,0-2.47.63L32.15,73,28.87,71a1.27,1.27,0,1,0-1.29,2.19l3.27,1.94L26,76.41A1.26,1.26,0,0,0,25.09,78a1.27,1.27,0,0,0,1.55.92l7-1.79a1.17,1.17,0,0,0,.24-.09l5.2,3.08-5.26,3a1,1,0,0,0-.24-.09l-7-1.89a1.27,1.27,0,1,0-.66,2.45l4.83,1.3-3.29,1.89A1.27,1.27,0,0,0,28.75,89L32,87.08,30.73,91.9a1.27,1.27,0,0,0,2.46.67l1.89-7a2,2,0,0,0,0-.26l5.22-3v6a.84.84,0,0,0-.18.15L35,93.63a1.27,1.27,0,0,0,1.8,1.8l3.51-3.52v3.77A1.27,1.27,0,0,0,41.61,97h0a1.27,1.27,0,0,0,1.27-1.28V91.89l3.54,3.54a1.27,1.27,0,0,0,1.79-1.8L43.11,88.5a1.57,1.57,0,0,0-.21-.17v-6l5.17,3.06a1.09,1.09,0,0,0,0,.26l1.79,7a1.27,1.27,0,0,0,2.47-.63l-1.24-4.84,3.26,1.93A1.27,1.27,0,1,0,55.69,87L52.43,85l4.84-1.23a1.27,1.27,0,0,0-.62-2.47Z"/><path class="cls-4" d="M106.65,81.32l-7,1.79a1.73,1.73,0,0,0-.24.1l-5.22-3.1,5.24-3,.25.1,7,1.89a1.27,1.27,0,0,0,.65-2.46l-4.82-1.3,3.3-1.9a1.27,1.27,0,1,0-1.27-2.2l-3.3,1.9,1.3-4.83a1.27,1.27,0,1,0-2.45-.66l-1.89,7a1.17,1.17,0,0,0,0,.26l-5.23,3v-6a1.57,1.57,0,0,0,.21-.17l5.12-5.13a1.27,1.27,0,1,0-1.79-1.79L92.9,68.31V64.5a1.27,1.27,0,0,0-1.27-1.27h0a1.27,1.27,0,0,0-1.27,1.27v3.79l-3.51-3.51A1.27,1.27,0,0,0,85,66.57l5.13,5.13a.84.84,0,0,0,.18.15v6l-5.13-3a2.34,2.34,0,0,0,0-.26l-1.79-7a1.27,1.27,0,1,0-2.47.63L82.15,73,78.87,71a1.27,1.27,0,1,0-1.29,2.19l3.27,1.94L76,76.41A1.26,1.26,0,0,0,75.09,78a1.27,1.27,0,0,0,1.55.92l7-1.79a1.17,1.17,0,0,0,.24-.09l5.2,3.08-5.26,3a1,1,0,0,0-.24-.09l-7-1.89a1.27,1.27,0,1,0-.66,2.45l4.83,1.3-3.29,1.89A1.27,1.27,0,0,0,78.75,89L82,87.08,80.73,91.9a1.27,1.27,0,0,0,2.46.67l1.89-7a2,2,0,0,0,0-.26l5.22-3v6a.84.84,0,0,0-.18.15L85,93.63a1.27,1.27,0,0,0,1.8,1.8l3.51-3.52v3.77A1.27,1.27,0,0,0,91.61,97h0a1.27,1.27,0,0,0,1.27-1.28V91.89l3.54,3.54a1.27,1.27,0,1,0,1.79-1.8L93.11,88.5a1.57,1.57,0,0,0-.21-.17v-6l5.17,3.06a1.09,1.09,0,0,0,0,.26l1.79,7a1.27,1.27,0,0,0,2.47-.63l-1.24-4.84,3.26,1.93a1.27,1.27,0,1,0,1.3-2.18L102.43,85l4.84-1.23a1.27,1.27,0,0,0-.62-2.47Z"/><path class="cls-4" d="M156.65,81.32l-7,1.79a1.73,1.73,0,0,0-.24.1l-5.22-3.1,5.24-3,.25.1,7,1.89a1.27,1.27,0,0,0,.65-2.46l-4.82-1.3,3.3-1.9a1.27,1.27,0,1,0-1.27-2.2l-3.3,1.9,1.3-4.83a1.27,1.27,0,1,0-2.45-.66l-1.89,7a1.17,1.17,0,0,0,0,.26l-5.23,3v-6a1.57,1.57,0,0,0,.21-.17l5.12-5.13a1.27,1.27,0,0,0-1.79-1.79l-3.54,3.53V64.5a1.27,1.27,0,0,0-1.27-1.27h0a1.27,1.27,0,0,0-1.27,1.27v3.79l-3.51-3.51a1.27,1.27,0,0,0-1.8,1.79l5.13,5.13a.84.84,0,0,0,.18.15v6l-5.13-3a2.34,2.34,0,0,0,0-.26l-1.79-7a1.27,1.27,0,0,0-2.47.63L132.15,73,128.87,71a1.27,1.27,0,1,0-1.29,2.19l3.27,1.94L126,76.41a1.26,1.26,0,0,0-.92,1.54,1.27,1.27,0,0,0,1.55.92l7-1.79a1.17,1.17,0,0,0,.24-.09l5.2,3.08-5.26,3a1,1,0,0,0-.24-.09l-7-1.89a1.27,1.27,0,1,0-.66,2.45l4.83,1.3-3.29,1.89A1.27,1.27,0,0,0,128.75,89L132,87.08l-1.31,4.82a1.27,1.27,0,0,0,2.46.67l1.89-7a2,2,0,0,0,0-.26l5.22-3v6a.84.84,0,0,0-.18.15L135,93.63a1.27,1.27,0,0,0,1.8,1.8l3.51-3.52v3.77A1.27,1.27,0,0,0,141.61,97h0a1.27,1.27,0,0,0,1.27-1.28V91.89l3.54,3.54a1.27,1.27,0,0,0,1.79-1.8l-5.12-5.13a1.57,1.57,0,0,0-.21-.17v-6l5.17,3.06a1.09,1.09,0,0,0,0,.26l1.79,7a1.27,1.27,0,0,0,2.47-.63l-1.24-4.84,3.26,1.93a1.27,1.27,0,1,0,1.3-2.18L152.43,85l4.84-1.23a1.27,1.27,0,0,0-.62-2.47Z"/><path class="cls-4" d="M206.65,81.32l-7,1.79a1.73,1.73,0,0,0-.24.1l-5.22-3.1,5.24-3,.25.1,7,1.89a1.27,1.27,0,0,0,.65-2.46l-4.82-1.3,3.3-1.9a1.27,1.27,0,1,0-1.27-2.2l-3.3,1.9,1.3-4.83a1.27,1.27,0,1,0-2.45-.66l-1.89,7a1.17,1.17,0,0,0,0,.26l-5.23,3v-6a1.57,1.57,0,0,0,.21-.17l5.12-5.13a1.27,1.27,0,0,0-1.79-1.79l-3.54,3.53V64.5a1.27,1.27,0,0,0-1.27-1.27h0a1.27,1.27,0,0,0-1.27,1.27v3.79l-3.51-3.51a1.27,1.27,0,0,0-1.8,1.79l5.13,5.13a.84.84,0,0,0,.18.15v6l-5.13-3a2.34,2.34,0,0,0,0-.26l-1.79-7a1.27,1.27,0,0,0-2.47.63L182.15,73,178.87,71a1.27,1.27,0,0,0-1.29,2.19l3.27,1.94L176,76.41a1.26,1.26,0,0,0-.92,1.54,1.27,1.27,0,0,0,1.55.92l7-1.79a1.17,1.17,0,0,0,.24-.09l5.2,3.08-5.26,3a1,1,0,0,0-.24-.09l-7-1.89a1.27,1.27,0,1,0-.66,2.45l4.83,1.3-3.29,1.89A1.27,1.27,0,0,0,178.75,89L182,87.08l-1.31,4.82a1.27,1.27,0,0,0,2.46.67l1.89-7a2,2,0,0,0,0-.26l5.22-3v6a.84.84,0,0,0-.18.15L185,93.63a1.27,1.27,0,0,0,1.8,1.8l3.51-3.52v3.77A1.27,1.27,0,0,0,191.61,97h0a1.27,1.27,0,0,0,1.27-1.28V91.89l3.54,3.54a1.27,1.27,0,0,0,1.79-1.8l-5.12-5.13a1.57,1.57,0,0,0-.21-.17v-6l5.17,3.06a1.09,1.09,0,0,0,0,.26l1.79,7a1.27,1.27,0,0,0,2.47-.63l-1.24-4.84,3.26,1.93a1.27,1.27,0,0,0,1.3-2.18L202.43,85l4.84-1.23a1.27,1.27,0,0,0-.62-2.47Z"/><path class="cls-4" d="M31.65,111.32l-7,1.79a1.73,1.73,0,0,0-.24.1l-5.22-3.1,5.24-3,.25.1,7,1.89a1.27,1.27,0,0,0,.65-2.46l-4.82-1.3,3.3-1.9a1.27,1.27,0,1,0-1.27-2.2l-3.3,1.9,1.3-4.83a1.27,1.27,0,1,0-2.45-.66l-1.89,7a1.17,1.17,0,0,0,0,.26l-5.23,3v-6a1.57,1.57,0,0,0,.21-.17l5.12-5.13a1.27,1.27,0,0,0-1.79-1.79L17.9,98.31V94.5a1.27,1.27,0,0,0-1.27-1.27h0a1.27,1.27,0,0,0-1.27,1.27v3.79l-3.51-3.51A1.27,1.27,0,0,0,10,96.57l5.13,5.13a.84.84,0,0,0,.18.15v6l-5.13-3a2.34,2.34,0,0,0,0-.26l-1.79-7a1.27,1.27,0,1,0-2.47.63L7.15,103,3.87,101a1.27,1.27,0,1,0-1.29,2.19l3.27,1.94L1,106.41A1.26,1.26,0,0,0,.09,108a1.27,1.27,0,0,0,1.55.92l7-1.79a1.17,1.17,0,0,0,.24-.09l5.2,3.08-5.26,3a1,1,0,0,0-.24-.09l-7-1.89a1.27,1.27,0,1,0-.66,2.45l4.83,1.3-3.29,1.89A1.27,1.27,0,0,0,3.75,119L7,117.08,5.73,121.9a1.27,1.27,0,0,0,2.46.67l1.89-7a2,2,0,0,0,0-.26l5.22-3v6a.84.84,0,0,0-.18.15L10,123.63a1.27,1.27,0,0,0,1.8,1.8l3.51-3.52v3.77A1.27,1.27,0,0,0,16.61,127h0a1.27,1.27,0,0,0,1.27-1.28v-3.79l3.54,3.54a1.27,1.27,0,0,0,1.79-1.8l-5.12-5.13a1.57,1.57,0,0,0-.21-.17v-6l5.17,3.06a1.09,1.09,0,0,0,0,.26l1.79,7a1.27,1.27,0,0,0,2.47-.63l-1.24-4.84,3.26,1.93a1.27,1.27,0,1,0,1.3-2.18L27.43,115l4.84-1.23a1.27,1.27,0,0,0-.62-2.47Z"/><path class="cls-4" d="M81.65,111.32l-7,1.79a1.73,1.73,0,0,0-.24.1l-5.22-3.1,5.24-3,.25.1,7,1.89a1.27,1.27,0,0,0,.65-2.46l-4.82-1.3,3.3-1.9a1.27,1.27,0,1,0-1.27-2.2l-3.3,1.9,1.3-4.83a1.27,1.27,0,1,0-2.45-.66l-1.89,7a1.17,1.17,0,0,0,0,.26l-5.23,3v-6a1.57,1.57,0,0,0,.21-.17l5.12-5.13a1.27,1.27,0,1,0-1.79-1.79L67.9,98.31V94.5a1.27,1.27,0,0,0-1.27-1.27h0a1.27,1.27,0,0,0-1.27,1.27v3.79l-3.51-3.51A1.27,1.27,0,0,0,60,96.57l5.13,5.13a.84.84,0,0,0,.18.15v6l-5.13-3a2.34,2.34,0,0,0,0-.26l-1.79-7a1.27,1.27,0,0,0-2.47.63L57.15,103,53.87,101a1.27,1.27,0,1,0-1.29,2.19l3.27,1.94L51,106.41a1.26,1.26,0,0,0-.92,1.54,1.27,1.27,0,0,0,1.55.92l7-1.79a1.17,1.17,0,0,0,.24-.09l5.2,3.08-5.26,3a1,1,0,0,0-.24-.09l-7-1.89a1.27,1.27,0,1,0-.66,2.45l4.83,1.3-3.29,1.89A1.27,1.27,0,1,0,53.75,119L57,117.08l-1.31,4.82a1.27,1.27,0,0,0,2.46.67l1.89-7a2,2,0,0,0,0-.26l5.22-3v6a.84.84,0,0,0-.18.15L60,123.63a1.27,1.27,0,0,0,1.8,1.8l3.51-3.52v3.77A1.27,1.27,0,0,0,66.61,127h0a1.27,1.27,0,0,0,1.27-1.28v-3.79l3.54,3.54a1.27,1.27,0,1,0,1.79-1.8l-5.12-5.13a1.57,1.57,0,0,0-.21-.17v-6l5.17,3.06a1.09,1.09,0,0,0,0,.26l1.79,7a1.27,1.27,0,0,0,2.47-.63l-1.24-4.84,3.26,1.93a1.27,1.27,0,0,0,1.3-2.18L77.43,115l4.84-1.23a1.27,1.27,0,0,0-.62-2.47Z"/><path class="cls-4" d="M131.65,111.32l-7,1.79a1.73,1.73,0,0,0-.24.1l-5.22-3.1,5.24-3,.25.1,7,1.89a1.27,1.27,0,0,0,.65-2.46l-4.82-1.3,3.3-1.9a1.27,1.27,0,1,0-1.27-2.2l-3.3,1.9,1.3-4.83a1.27,1.27,0,1,0-2.45-.66l-1.89,7a1.17,1.17,0,0,0,0,.26l-5.23,3v-6a1.57,1.57,0,0,0,.21-.17l5.12-5.13a1.27,1.27,0,1,0-1.79-1.79l-3.54,3.53V94.5a1.27,1.27,0,0,0-1.27-1.27h0a1.27,1.27,0,0,0-1.27,1.27v3.79l-3.51-3.51a1.27,1.27,0,0,0-1.8,1.79l5.13,5.13a.84.84,0,0,0,.18.15v6l-5.13-3a2.34,2.34,0,0,0,0-.26l-1.79-7a1.27,1.27,0,0,0-2.47.63l1.24,4.85L103.87,101a1.27,1.27,0,1,0-1.29,2.19l3.27,1.94L101,106.41a1.26,1.26,0,0,0-.92,1.54,1.27,1.27,0,0,0,1.55.92l7-1.79a1.17,1.17,0,0,0,.24-.09l5.2,3.08-5.26,3a1,1,0,0,0-.24-.09l-7-1.89a1.27,1.27,0,1,0-.66,2.45l4.83,1.3-3.29,1.89a1.27,1.27,0,0,0,1.27,2.21l3.29-1.89-1.31,4.82a1.27,1.27,0,0,0,2.46.67l1.89-7a2,2,0,0,0,0-.26l5.22-3v6a.84.84,0,0,0-.18.15L110,123.63a1.27,1.27,0,0,0,1.8,1.8l3.51-3.52v3.77a1.27,1.27,0,0,0,1.27,1.28h0a1.27,1.27,0,0,0,1.27-1.28v-3.79l3.54,3.54a1.27,1.27,0,1,0,1.79-1.8l-5.12-5.13a1.57,1.57,0,0,0-.21-.17v-6l5.17,3.06a1.09,1.09,0,0,0,0,.26l1.79,7a1.27,1.27,0,0,0,2.47-.63l-1.24-4.84,3.26,1.93a1.27,1.27,0,0,0,1.3-2.18L127.43,115l4.84-1.23a1.27,1.27,0,0,0-.62-2.47Z"/><path class="cls-4" d="M181.65,111.32l-7,1.79a1.73,1.73,0,0,0-.24.1l-5.22-3.1,5.24-3,.25.1,7,1.89a1.27,1.27,0,0,0,.65-2.46l-4.82-1.3,3.3-1.9a1.27,1.27,0,1,0-1.27-2.2l-3.3,1.9,1.3-4.83a1.27,1.27,0,1,0-2.45-.66l-1.89,7a1.17,1.17,0,0,0,0,.26l-5.23,3v-6a1.57,1.57,0,0,0,.21-.17l5.12-5.13a1.27,1.27,0,0,0-1.79-1.79l-3.54,3.53V94.5a1.27,1.27,0,0,0-1.27-1.27h0a1.27,1.27,0,0,0-1.27,1.27v3.79l-3.51-3.51a1.27,1.27,0,0,0-1.8,1.79l5.13,5.13a.84.84,0,0,0,.18.15v6l-5.13-3a2.34,2.34,0,0,0,0-.26l-1.79-7a1.27,1.27,0,0,0-2.47.63l1.24,4.85L153.87,101a1.27,1.27,0,0,0-1.29,2.19l3.27,1.94L151,106.41a1.26,1.26,0,0,0-.92,1.54,1.27,1.27,0,0,0,1.55.92l7-1.79a1.17,1.17,0,0,0,.24-.09l5.2,3.08-5.26,3a1,1,0,0,0-.24-.09l-7-1.89a1.27,1.27,0,1,0-.66,2.45l4.83,1.3-3.29,1.89a1.27,1.27,0,0,0,1.27,2.21l3.29-1.89-1.31,4.82a1.27,1.27,0,0,0,2.46.67l1.89-7a2,2,0,0,0,0-.26l5.22-3v6a.84.84,0,0,0-.18.15L160,123.63a1.27,1.27,0,0,0,1.8,1.8l3.51-3.52v3.77a1.27,1.27,0,0,0,1.27,1.28h0a1.27,1.27,0,0,0,1.27-1.28v-3.79l3.54,3.54a1.27,1.27,0,0,0,1.79-1.8l-5.12-5.13a1.57,1.57,0,0,0-.21-.17v-6l5.17,3.06a1.09,1.09,0,0,0,0,.26l1.79,7a1.27,1.27,0,0,0,2.47-.63l-1.24-4.84,3.26,1.93a1.27,1.27,0,0,0,1.3-2.18L177.43,115l4.84-1.23a1.27,1.27,0,0,0-.62-2.47Z"/><path class="cls-4" d="M31.65,171.32l-7,1.79a1.73,1.73,0,0,0-.24.1l-5.22-3.1,5.24-3,.25.1,7,1.89a1.27,1.27,0,0,0,.65-2.46l-4.82-1.3,3.3-1.9a1.27,1.27,0,1,0-1.27-2.2l-3.3,1.9,1.3-4.83a1.27,1.27,0,1,0-2.45-.66l-1.89,7a1.17,1.17,0,0,0,0,.26l-5.23,3v-6a1.57,1.57,0,0,0,.21-.17l5.12-5.13a1.27,1.27,0,0,0-1.79-1.79l-3.54,3.53V154.5a1.27,1.27,0,0,0-1.27-1.27h0a1.27,1.27,0,0,0-1.27,1.27v3.79l-3.51-3.51a1.27,1.27,0,0,0-1.8,1.79l5.13,5.13a.84.84,0,0,0,.18.15v6l-5.13-3a2.34,2.34,0,0,0,0-.26l-1.79-7a1.27,1.27,0,1,0-2.47.63L7.15,163l-3.28-2a1.27,1.27,0,0,0-1.29,2.19l3.27,1.94L1,166.41A1.26,1.26,0,0,0,.09,168a1.27,1.27,0,0,0,1.55.92l7-1.79.24-.09,5.2,3.08-5.26,3a1,1,0,0,0-.24-.09l-7-1.89a1.27,1.27,0,1,0-.66,2.45l4.83,1.3-3.29,1.89A1.27,1.27,0,0,0,3.75,179L7,177.08,5.73,181.9a1.27,1.27,0,0,0,2.46.67l1.89-7a2,2,0,0,0,0-.26l5.22-3v6a.84.84,0,0,0-.18.15L10,183.63a1.27,1.27,0,0,0,1.8,1.8l3.51-3.52v3.77A1.27,1.27,0,0,0,16.61,187h0a1.27,1.27,0,0,0,1.27-1.28v-3.79l3.54,3.54a1.27,1.27,0,0,0,1.79-1.8l-5.12-5.13a1.57,1.57,0,0,0-.21-.17v-6l5.17,3.06a1.09,1.09,0,0,0,0,.26l1.79,7a1.27,1.27,0,0,0,2.47-.63l-1.24-4.84,3.26,1.93a1.27,1.27,0,0,0,1.3-2.18L27.43,175l4.84-1.23a1.27,1.27,0,0,0-.62-2.47Z"/><path class="cls-4" d="M81.65,171.32l-7,1.79a1.73,1.73,0,0,0-.24.1l-5.22-3.1,5.24-3,.25.1,7,1.89a1.27,1.27,0,0,0,.65-2.46l-4.82-1.3,3.3-1.9a1.27,1.27,0,1,0-1.27-2.2l-3.3,1.9,1.3-4.83a1.27,1.27,0,1,0-2.45-.66l-1.89,7a1.17,1.17,0,0,0,0,.26l-5.23,3v-6a1.57,1.57,0,0,0,.21-.17l5.12-5.13a1.27,1.27,0,0,0-1.79-1.79l-3.54,3.53V154.5a1.27,1.27,0,0,0-1.27-1.27h0a1.27,1.27,0,0,0-1.27,1.27v3.79l-3.51-3.51a1.27,1.27,0,0,0-1.8,1.79l5.13,5.13a.84.84,0,0,0,.18.15v6l-5.13-3a2.34,2.34,0,0,0,0-.26l-1.79-7a1.27,1.27,0,0,0-2.47.63L57.15,163l-3.28-2a1.27,1.27,0,1,0-1.29,2.19l3.27,1.94L51,166.41a1.26,1.26,0,0,0-.92,1.54,1.27,1.27,0,0,0,1.55.92l7-1.79.24-.09,5.2,3.08-5.26,3a1,1,0,0,0-.24-.09l-7-1.89a1.27,1.27,0,1,0-.66,2.45l4.83,1.3-3.29,1.89A1.27,1.27,0,0,0,53.75,179L57,177.08l-1.31,4.82a1.27,1.27,0,0,0,2.46.67l1.89-7a2,2,0,0,0,0-.26l5.22-3v6a.84.84,0,0,0-.18.15L60,183.63a1.27,1.27,0,0,0,1.8,1.8l3.51-3.52v3.77A1.27,1.27,0,0,0,66.61,187h0a1.27,1.27,0,0,0,1.27-1.28v-3.79l3.54,3.54a1.27,1.27,0,1,0,1.79-1.8l-5.12-5.13a1.57,1.57,0,0,0-.21-.17v-6l5.17,3.06a1.09,1.09,0,0,0,0,.26l1.79,7a1.27,1.27,0,0,0,2.47-.63l-1.24-4.84,3.26,1.93a1.27,1.27,0,0,0,1.3-2.18L77.43,175l4.84-1.23a1.27,1.27,0,0,0-.62-2.47Z"/><path class="cls-4" d="M131.65,171.32l-7,1.79a1.73,1.73,0,0,0-.24.1l-5.22-3.1,5.24-3,.25.1,7,1.89a1.27,1.27,0,0,0,.65-2.46l-4.82-1.3,3.3-1.9a1.27,1.27,0,1,0-1.27-2.2l-3.3,1.9,1.3-4.83a1.27,1.27,0,1,0-2.45-.66l-1.89,7a1.17,1.17,0,0,0,0,.26l-5.23,3v-6a1.57,1.57,0,0,0,.21-.17l5.12-5.13a1.27,1.27,0,0,0-1.79-1.79l-3.54,3.53V154.5a1.27,1.27,0,0,0-1.27-1.27h0a1.27,1.27,0,0,0-1.27,1.27v3.79l-3.51-3.51a1.27,1.27,0,0,0-1.8,1.79l5.13,5.13a.84.84,0,0,0,.18.15v6l-5.13-3a2.34,2.34,0,0,0,0-.26l-1.79-7a1.27,1.27,0,1,0-2.47.63l1.24,4.85-3.28-2a1.27,1.27,0,0,0-1.29,2.19l3.27,1.94L101,166.41a1.26,1.26,0,0,0-.92,1.54,1.27,1.27,0,0,0,1.55.92l7-1.79.24-.09,5.2,3.08-5.26,3a1,1,0,0,0-.24-.09l-7-1.89a1.27,1.27,0,1,0-.66,2.45l4.83,1.3-3.29,1.89a1.27,1.27,0,0,0,1.27,2.21l3.29-1.89-1.31,4.82a1.27,1.27,0,0,0,2.46.67l1.89-7a2,2,0,0,0,0-.26l5.22-3v6a.84.84,0,0,0-.18.15L110,183.63a1.27,1.27,0,0,0,1.8,1.8l3.51-3.52v3.77a1.27,1.27,0,0,0,1.27,1.28h0a1.27,1.27,0,0,0,1.27-1.28v-3.79l3.54,3.54a1.27,1.27,0,1,0,1.79-1.8l-5.12-5.13a1.57,1.57,0,0,0-.21-.17v-6l5.17,3.06a1.09,1.09,0,0,0,0,.26l1.79,7a1.27,1.27,0,0,0,2.47-.63l-1.24-4.84,3.26,1.93a1.27,1.27,0,0,0,1.3-2.18L127.43,175l4.84-1.23a1.27,1.27,0,0,0-.62-2.47Z"/><path class="cls-4" d="M181.65,171.32l-7,1.79a1.73,1.73,0,0,0-.24.1l-5.22-3.1,5.24-3,.25.1,7,1.89a1.27,1.27,0,0,0,.65-2.46l-4.82-1.3,3.3-1.9a1.27,1.27,0,1,0-1.27-2.2l-3.3,1.9,1.3-4.83a1.27,1.27,0,1,0-2.45-.66l-1.89,7a1.17,1.17,0,0,0,0,.26l-5.23,3v-6a1.57,1.57,0,0,0,.21-.17l5.12-5.13a1.27,1.27,0,0,0-1.79-1.79l-3.54,3.53V154.5a1.27,1.27,0,0,0-1.27-1.27h0a1.27,1.27,0,0,0-1.27,1.27v3.79l-3.51-3.51a1.27,1.27,0,0,0-1.8,1.79l5.13,5.13a.84.84,0,0,0,.18.15v6l-5.13-3a2.34,2.34,0,0,0,0-.26l-1.79-7a1.27,1.27,0,1,0-2.47.63l1.24,4.85-3.28-2a1.27,1.27,0,0,0-1.29,2.19l3.27,1.94L151,166.41a1.26,1.26,0,0,0-.92,1.54,1.27,1.27,0,0,0,1.55.92l7-1.79.24-.09,5.2,3.08-5.26,3a1,1,0,0,0-.24-.09l-7-1.89a1.27,1.27,0,1,0-.66,2.45l4.83,1.3-3.29,1.89a1.27,1.27,0,0,0,1.27,2.21l3.29-1.89-1.31,4.82a1.27,1.27,0,0,0,2.46.67l1.89-7a2,2,0,0,0,0-.26l5.22-3v6a.84.84,0,0,0-.18.15L160,183.63a1.27,1.27,0,0,0,1.8,1.8l3.51-3.52v3.77a1.27,1.27,0,0,0,1.27,1.28h0a1.27,1.27,0,0,0,1.27-1.28v-3.79l3.54,3.54a1.27,1.27,0,0,0,1.79-1.8l-5.12-5.13a1.57,1.57,0,0,0-.21-.17v-6l5.17,3.06a1.09,1.09,0,0,0,0,.26l1.79,7a1.27,1.27,0,0,0,2.47-.63l-1.24-4.84,3.26,1.93a1.27,1.27,0,0,0,1.3-2.18L177.43,175l4.84-1.23a1.27,1.27,0,0,0-.62-2.47Z"/><path class="cls-4" d="M56.65,141.32l-7,1.79a1.73,1.73,0,0,0-.24.1l-5.22-3.1,5.24-3,.25.1,7,1.89a1.27,1.27,0,0,0,.65-2.46l-4.82-1.3,3.3-1.9a1.27,1.27,0,1,0-1.27-2.2l-3.3,1.9,1.3-4.83a1.27,1.27,0,1,0-2.45-.66l-1.89,7a1.17,1.17,0,0,0,0,.26l-5.23,3v-6a1.57,1.57,0,0,0,.21-.17l5.12-5.13a1.27,1.27,0,0,0-1.79-1.79l-3.54,3.53V124.5a1.27,1.27,0,0,0-1.27-1.27h0a1.27,1.27,0,0,0-1.27,1.27v3.79l-3.51-3.51a1.27,1.27,0,0,0-1.8,1.79l5.13,5.13a.84.84,0,0,0,.18.15v6l-5.13-3a2.34,2.34,0,0,0,0-.26l-1.79-7a1.27,1.27,0,1,0-2.47.63L32.15,133l-3.28-2a1.27,1.27,0,0,0-1.29,2.19l3.27,1.94L26,136.41a1.26,1.26,0,0,0-.92,1.54,1.27,1.27,0,0,0,1.55.92l7-1.79.24-.09,5.2,3.08-5.26,3a1,1,0,0,0-.24-.09l-7-1.89a1.27,1.27,0,1,0-.66,2.45l4.83,1.3-3.29,1.89A1.27,1.27,0,0,0,28.75,149L32,147.08l-1.31,4.82a1.27,1.27,0,0,0,2.46.67l1.89-7a2,2,0,0,0,0-.26l5.22-3v6a.84.84,0,0,0-.18.15L35,153.63a1.27,1.27,0,0,0,1.8,1.8l3.51-3.52v3.77A1.27,1.27,0,0,0,41.61,157h0a1.27,1.27,0,0,0,1.27-1.28v-3.79l3.54,3.54a1.27,1.27,0,0,0,1.79-1.8l-5.12-5.13a1.57,1.57,0,0,0-.21-.17v-6l5.17,3.06a1.09,1.09,0,0,0,0,.26l1.79,7a1.27,1.27,0,0,0,2.47-.63l-1.24-4.84,3.26,1.93a1.27,1.27,0,0,0,1.3-2.18L52.43,145l4.84-1.23a1.27,1.27,0,0,0-.62-2.47Z"/><path class="cls-4" d="M106.65,141.32l-7,1.79a1.73,1.73,0,0,0-.24.1l-5.22-3.1,5.24-3,.25.1,7,1.89a1.27,1.27,0,0,0,.65-2.46l-4.82-1.3,3.3-1.9a1.27,1.27,0,1,0-1.27-2.2l-3.3,1.9,1.3-4.83a1.27,1.27,0,1,0-2.45-.66l-1.89,7a1.17,1.17,0,0,0,0,.26l-5.23,3v-6a1.57,1.57,0,0,0,.21-.17l5.12-5.13a1.27,1.27,0,1,0-1.79-1.79l-3.54,3.53V124.5a1.27,1.27,0,0,0-1.27-1.27h0a1.27,1.27,0,0,0-1.27,1.27v3.79l-3.51-3.51a1.27,1.27,0,0,0-1.8,1.79l5.13,5.13a.84.84,0,0,0,.18.15v6l-5.13-3a2.34,2.34,0,0,0,0-.26l-1.79-7a1.27,1.27,0,0,0-2.47.63L82.15,133l-3.28-2a1.27,1.27,0,0,0-1.29,2.19l3.27,1.94L76,136.41a1.26,1.26,0,0,0-.92,1.54,1.27,1.27,0,0,0,1.55.92l7-1.79.24-.09,5.2,3.08-5.26,3a1,1,0,0,0-.24-.09l-7-1.89a1.27,1.27,0,1,0-.66,2.45l4.83,1.3-3.29,1.89A1.27,1.27,0,0,0,78.75,149L82,147.08l-1.31,4.82a1.27,1.27,0,0,0,2.46.67l1.89-7a2,2,0,0,0,0-.26l5.22-3v6a.84.84,0,0,0-.18.15L85,153.63a1.27,1.27,0,0,0,1.8,1.8l3.51-3.52v3.77A1.27,1.27,0,0,0,91.61,157h0a1.27,1.27,0,0,0,1.27-1.28v-3.79l3.54,3.54a1.27,1.27,0,1,0,1.79-1.8l-5.12-5.13a1.57,1.57,0,0,0-.21-.17v-6l5.17,3.06a1.09,1.09,0,0,0,0,.26l1.79,7a1.27,1.27,0,0,0,2.47-.63l-1.24-4.84,3.26,1.93a1.27,1.27,0,0,0,1.3-2.18L102.43,145l4.84-1.23a1.27,1.27,0,0,0-.62-2.47Z"/><path class="cls-4" d="M156.65,141.32l-7,1.79a1.73,1.73,0,0,0-.24.1l-5.22-3.1,5.24-3,.25.1,7,1.89a1.27,1.27,0,0,0,.65-2.46l-4.82-1.3,3.3-1.9a1.27,1.27,0,1,0-1.27-2.2l-3.3,1.9,1.3-4.83a1.27,1.27,0,1,0-2.45-.66l-1.89,7a1.17,1.17,0,0,0,0,.26l-5.23,3v-6a1.57,1.57,0,0,0,.21-.17l5.12-5.13a1.27,1.27,0,0,0-1.79-1.79l-3.54,3.53V124.5a1.27,1.27,0,0,0-1.27-1.27h0a1.27,1.27,0,0,0-1.27,1.27v3.79l-3.51-3.51a1.27,1.27,0,0,0-1.8,1.79l5.13,5.13a.84.84,0,0,0,.18.15v6l-5.13-3a2.34,2.34,0,0,0,0-.26l-1.79-7a1.27,1.27,0,1,0-2.47.63l1.24,4.85-3.28-2a1.27,1.27,0,1,0-1.29,2.19l3.27,1.94L126,136.41a1.26,1.26,0,0,0-.92,1.54,1.27,1.27,0,0,0,1.55.92l7-1.79.24-.09,5.2,3.08-5.26,3a1,1,0,0,0-.24-.09l-7-1.89a1.27,1.27,0,1,0-.66,2.45l4.83,1.3-3.29,1.89a1.27,1.27,0,0,0,1.27,2.21l3.29-1.89-1.31,4.82a1.27,1.27,0,0,0,2.46.67l1.89-7a2,2,0,0,0,0-.26l5.22-3v6a.84.84,0,0,0-.18.15L135,153.63a1.27,1.27,0,0,0,1.8,1.8l3.51-3.52v3.77a1.27,1.27,0,0,0,1.27,1.28h0a1.27,1.27,0,0,0,1.27-1.28v-3.79l3.54,3.54a1.27,1.27,0,0,0,1.79-1.8l-5.12-5.13a1.57,1.57,0,0,0-.21-.17v-6l5.17,3.06a1.09,1.09,0,0,0,0,.26l1.79,7a1.27,1.27,0,0,0,2.47-.63l-1.24-4.84,3.26,1.93a1.27,1.27,0,0,0,1.3-2.18L152.43,145l4.84-1.23a1.27,1.27,0,0,0-.62-2.47Z"/><path class="cls-4" d="M206.65,141.32l-7,1.79a1.73,1.73,0,0,0-.24.1l-5.22-3.1,5.24-3,.25.1,7,1.89a1.27,1.27,0,0,0,.65-2.46l-4.82-1.3,3.3-1.9a1.27,1.27,0,1,0-1.27-2.2l-3.3,1.9,1.3-4.83a1.27,1.27,0,1,0-2.45-.66l-1.89,7a1.17,1.17,0,0,0,0,.26l-5.23,3v-6a1.57,1.57,0,0,0,.21-.17l5.12-5.13a1.27,1.27,0,0,0-1.79-1.79l-3.54,3.53V124.5a1.27,1.27,0,0,0-1.27-1.27h0a1.27,1.27,0,0,0-1.27,1.27v3.79l-3.51-3.51a1.27,1.27,0,0,0-1.8,1.79l5.13,5.13a.84.84,0,0,0,.18.15v6l-5.13-3a2.34,2.34,0,0,0,0-.26l-1.79-7a1.27,1.27,0,0,0-2.47.63l1.24,4.85-3.28-2a1.27,1.27,0,0,0-1.29,2.19l3.27,1.94L176,136.41a1.26,1.26,0,0,0-.92,1.54,1.27,1.27,0,0,0,1.55.92l7-1.79.24-.09,5.2,3.08-5.26,3a1,1,0,0,0-.24-.09l-7-1.89a1.27,1.27,0,1,0-.66,2.45l4.83,1.3-3.29,1.89a1.27,1.27,0,0,0,1.27,2.21l3.29-1.89-1.31,4.82a1.27,1.27,0,0,0,2.46.67l1.89-7a2,2,0,0,0,0-.26l5.22-3v6a.84.84,0,0,0-.18.15L185,153.63a1.27,1.27,0,0,0,1.8,1.8l3.51-3.52v3.77a1.27,1.27,0,0,0,1.27,1.28h0a1.27,1.27,0,0,0,1.27-1.28v-3.79l3.54,3.54a1.27,1.27,0,0,0,1.79-1.8l-5.12-5.13a1.57,1.57,0,0,0-.21-.17v-6l5.17,3.06a1.09,1.09,0,0,0,0,.26l1.79,7a1.27,1.27,0,0,0,2.47-.63l-1.24-4.84,3.26,1.93a1.27,1.27,0,0,0,1.3-2.18L202.43,145l4.84-1.23a1.27,1.27,0,0,0-.62-2.47Z"/></g><rect class="cls-5" x="25.77" y="42.23" width="131.72" height="26.22"/><rect class="cls-6" x="30.09" y="68.45" width="123.08" height="11.45"/><path class="cls-7" d="M144,18.66c-.92-6.69-6.56-14.18-12.64-17-6.29-2.89-13-1-18.39,2.78-10.85,7.65-18.26,20.4-24.21,32-.49.95-1,1.91-1.43,2.88a5.23,5.23,0,0,0-.51,2.55,4.58,4.58,0,0,0,4.37,5,4.3,4.3,0,0,0,2.14,0C110.83,46.14,147.25,42.29,144,18.66Zm-28.25,15a110.93,110.93,0,0,1-15.67,2.63,109,109,0,0,1,10-15.12c3.26-4.09,7.35-8.88,12.47-10.62s8.81,3.36,11,7.72C138.13,27.7,122.88,31.93,115.73,33.69Z"/><path class="cls-7" d="M96,39.33c-7.53-16.08-32.62-57-51.9-30.8-3.9,5.29-6.67,12.27-4.11,18.76,2.31,5.86,7.57,9.6,13.14,12.1,11.12,5,23.78,6.59,35.85,7.33l.92.05a4.25,4.25,0,0,0,2.24.07,4.58,4.58,0,0,0,4.37-5A5.23,5.23,0,0,0,96,39.33ZM53,28c-3.85-2.5-4.81-5.33-3.37-9.45,1.35-3.91,5.5-9.11,9.8-8.33,5.46,1,9.82,6.26,13.17,10.27a98.3,98.3,0,0,1,10.58,15.8,124,124,0,0,1-14.9-2.43C63,32.66,57.67,31,53,28Z"/><rect class="cls-7" x="81.81" y="42.23" width="19.64" height="119.4"/></g></g></svg>