<svg xmlns="http://www.w3.org/2000/svg" xmlns:xlink="http://www.w3.org/1999/xlink" viewBox="0 0 245.7 155.25"><defs><style>.cls-1{fill:none;}.cls-2{fill:#ed1b24;}.cls-3{clip-path:url(#clip-path);}.cls-4{fill:#f4515e;}.cls-5{fill:#db0b1b;}.cls-6{opacity:0.1;}.cls-7{fill:#ffa506;}.cls-8{fill:#ed8406;}</style><clipPath id="clip-path"><rect class="cls-1" x="12.85" y="52.99" width="207" height="93.18"/></clipPath></defs><title>Ресурс 3</title><g id="Слой_2" data-name="Слой 2"><g id="OBJECTS"><rect class="cls-2" x="12.85" y="52.99" width="207" height="93.18"/><g class="cls-3"><path class="cls-4" d="M12,41.47c.48-1,1.28-1,1.77,0l2.5,5.07a4.26,4.26,0,0,0,2.86,2.08l5.6.81c1.09.16,1.33.92.54,1.69l-4,3.94a4.3,4.3,0,0,0-1.1,3.37l1,5.57c.18,1.09-.46,1.55-1.44,1l-5-2.63a4.29,4.29,0,0,0-3.54,0L6.08,65c-1,.51-1.62,0-1.43-1l.95-5.57a4.26,4.26,0,0,0-1.09-3.37l-4-3.94c-.79-.77-.54-1.53.55-1.69l5.59-.81a4.28,4.28,0,0,0,2.87-2.08Z"/><path class="cls-4" d="M52,41.47c.48-1,1.28-1,1.77,0l2.5,5.07a4.26,4.26,0,0,0,2.86,2.08l5.6.81c1.09.16,1.33.92.54,1.69l-4,3.94a4.3,4.3,0,0,0-1.1,3.37l1,5.57c.18,1.09-.46,1.55-1.44,1l-5-2.63a4.29,4.29,0,0,0-3.54,0l-5,2.63c-1,.51-1.62,0-1.43-1l1-5.57a4.26,4.26,0,0,0-1.09-3.37l-4-3.94c-.79-.77-.54-1.53.55-1.69l5.59-.81a4.28,4.28,0,0,0,2.87-2.08Z"/><path class="cls-4" d="M92,41.47c.48-1,1.28-1,1.77,0l2.5,5.07a4.26,4.26,0,0,0,2.86,2.08l5.6.81c1.09.16,1.33.92.54,1.69l-4,3.94a4.3,4.3,0,0,0-1.1,3.37l1,5.57c.18,1.09-.46,1.55-1.44,1l-5-2.63a4.29,4.29,0,0,0-3.54,0l-5,2.63c-1,.51-1.62,0-1.43-1l.95-5.57a4.26,4.26,0,0,0-1.09-3.37l-4.05-3.94c-.79-.77-.54-1.53.55-1.69l5.59-.81a4.28,4.28,0,0,0,2.87-2.08Z"/><path class="cls-4" d="M132,41.47c.48-1,1.28-1,1.77,0l2.5,5.07a4.26,4.26,0,0,0,2.86,2.08l5.6.81c1.09.16,1.33.92.54,1.69l-4,3.94a4.3,4.3,0,0,0-1.1,3.37l1,5.57c.18,1.09-.46,1.55-1.43,1l-5-2.63a4.29,4.29,0,0,0-3.54,0l-5,2.63c-1,.51-1.62,0-1.43-1l.95-5.57a4.26,4.26,0,0,0-1.09-3.37l-4.05-3.94c-.79-.77-.54-1.53.55-1.69l5.59-.81a4.28,4.28,0,0,0,2.87-2.08Z"/><path class="cls-4" d="M172,41.47c.48-1,1.28-1,1.77,0l2.5,5.07a4.26,4.26,0,0,0,2.86,2.08l5.6.81c1.09.16,1.33.92.54,1.69l-4,3.94a4.3,4.3,0,0,0-1.1,3.37l1,5.57c.18,1.09-.46,1.55-1.43,1l-5-2.63a4.29,4.29,0,0,0-3.54,0l-5,2.63c-1,.51-1.62,0-1.43-1l.95-5.57a4.26,4.26,0,0,0-1.09-3.37l-4-3.94c-.79-.77-.54-1.53.55-1.69l5.59-.81a4.28,4.28,0,0,0,2.87-2.08Z"/><path class="cls-4" d="M212,41.47c.48-1,1.28-1,1.77,0l2.5,5.07a4.26,4.26,0,0,0,2.86,2.08l5.6.81c1.09.16,1.33.92.54,1.69l-4,3.94a4.3,4.3,0,0,0-1.1,3.37l1,5.57c.18,1.09-.46,1.55-1.43,1l-5-2.63a4.29,4.29,0,0,0-3.54,0l-5,2.63c-1,.51-1.62,0-1.43-1l.95-5.57a4.26,4.26,0,0,0-1.09-3.37l-4-3.94c-.79-.77-.54-1.53.55-1.69l5.59-.81a4.28,4.28,0,0,0,2.87-2.08Z"/><path class="cls-4" d="M32,71.47c.48-1,1.28-1,1.77,0l2.5,5.07a4.26,4.26,0,0,0,2.86,2.08l5.6.81c1.09.16,1.33.92.54,1.69l-4,3.94a4.3,4.3,0,0,0-1.1,3.37l1,5.57c.18,1.09-.46,1.55-1.44,1l-5-2.63a4.29,4.29,0,0,0-3.54,0l-5,2.63c-1,.51-1.62,0-1.43-1l1-5.57a4.26,4.26,0,0,0-1.09-3.37l-4.05-3.94c-.79-.77-.54-1.53.55-1.69l5.59-.81a4.28,4.28,0,0,0,2.87-2.08Z"/><path class="cls-4" d="M72,71.47c.48-1,1.28-1,1.77,0l2.5,5.07a4.26,4.26,0,0,0,2.86,2.08l5.6.81c1.09.16,1.33.92.54,1.69l-4,3.94a4.3,4.3,0,0,0-1.1,3.37l1,5.57c.18,1.09-.46,1.55-1.44,1l-5-2.63a4.29,4.29,0,0,0-3.54,0l-5,2.63c-1,.51-1.62,0-1.43-1l.95-5.57a4.26,4.26,0,0,0-1.09-3.37l-4.05-3.94c-.79-.77-.54-1.53.55-1.69l5.59-.81a4.28,4.28,0,0,0,2.87-2.08Z"/><path class="cls-4" d="M112,71.47c.48-1,1.28-1,1.77,0l2.5,5.07a4.26,4.26,0,0,0,2.86,2.08l5.6.81c1.09.16,1.33.92.54,1.69l-4,3.94a4.3,4.3,0,0,0-1.1,3.37l1,5.57c.18,1.09-.46,1.55-1.44,1l-5-2.63a4.29,4.29,0,0,0-3.54,0l-5,2.63c-1,.51-1.62,0-1.43-1l.95-5.57a4.26,4.26,0,0,0-1.09-3.37l-4.05-3.94c-.79-.77-.54-1.53.55-1.69l5.59-.81a4.28,4.28,0,0,0,2.87-2.08Z"/><path class="cls-4" d="M152,71.47c.48-1,1.28-1,1.77,0l2.5,5.07a4.26,4.26,0,0,0,2.86,2.08l5.6.81c1.09.16,1.33.92.54,1.69l-4,3.94a4.3,4.3,0,0,0-1.1,3.37l1,5.57c.18,1.09-.46,1.55-1.43,1l-5-2.63a4.29,4.29,0,0,0-3.54,0l-5,2.63c-1,.51-1.62,0-1.43-1l.95-5.57a4.26,4.26,0,0,0-1.09-3.37l-4-3.94c-.79-.77-.54-1.53.55-1.69l5.59-.81a4.28,4.28,0,0,0,2.87-2.08Z"/><path class="cls-4" d="M192,71.47c.48-1,1.28-1,1.77,0l2.5,5.07a4.26,4.26,0,0,0,2.86,2.08l5.6.81c1.09.16,1.33.92.54,1.69l-4,3.94a4.3,4.3,0,0,0-1.1,3.37l1,5.57c.18,1.09-.46,1.55-1.43,1l-5-2.63a4.29,4.29,0,0,0-3.54,0l-5,2.63c-1,.51-1.62,0-1.43-1l.95-5.57a4.26,4.26,0,0,0-1.09-3.37l-4-3.94c-.79-.77-.54-1.53.55-1.69l5.59-.81a4.28,4.28,0,0,0,2.87-2.08Z"/><path class="cls-4" d="M232,71.47c.48-1,1.28-1,1.77,0l2.5,5.07a4.26,4.26,0,0,0,2.86,2.08l5.6.81c1.09.16,1.33.92.54,1.69l-4,3.94a4.3,4.3,0,0,0-1.1,3.37l1,5.57c.18,1.09-.46,1.55-1.43,1l-5-2.63a4.29,4.29,0,0,0-3.54,0l-5,2.63c-1,.51-1.62,0-1.43-1l.95-5.57a4.26,4.26,0,0,0-1.09-3.37l-4-3.94c-.79-.77-.54-1.53.55-1.69l5.59-.81a4.28,4.28,0,0,0,2.87-2.08Z"/><path class="cls-4" d="M12,101.47c.48-1,1.28-1,1.77,0l2.5,5.07a4.26,4.26,0,0,0,2.86,2.08l5.6.81c1.09.16,1.33.92.54,1.69l-4,3.94a4.3,4.3,0,0,0-1.1,3.37l1,5.57c.18,1.09-.46,1.55-1.44,1l-5-2.63a4.29,4.29,0,0,0-3.54,0l-5,2.63c-1,.51-1.62,0-1.43-1l.95-5.57a4.26,4.26,0,0,0-1.09-3.37l-4-3.94c-.79-.77-.54-1.53.55-1.69l5.59-.81a4.28,4.28,0,0,0,2.87-2.08Z"/><path class="cls-4" d="M52,101.47c.48-1,1.28-1,1.77,0l2.5,5.07a4.26,4.26,0,0,0,2.86,2.08l5.6.81c1.09.16,1.33.92.54,1.69l-4,3.94a4.3,4.3,0,0,0-1.1,3.37l1,5.57c.18,1.09-.46,1.55-1.44,1l-5-2.63a4.29,4.29,0,0,0-3.54,0l-5,2.63c-1,.51-1.62,0-1.43-1l1-5.57a4.26,4.26,0,0,0-1.09-3.37l-4-3.94c-.79-.77-.54-1.53.55-1.69l5.59-.81a4.28,4.28,0,0,0,2.87-2.08Z"/><path class="cls-4" d="M92,101.47c.48-1,1.28-1,1.77,0l2.5,5.07a4.26,4.26,0,0,0,2.86,2.08l5.6.81c1.09.16,1.33.92.54,1.69l-4,3.94a4.3,4.3,0,0,0-1.1,3.37l1,5.57c.18,1.09-.46,1.55-1.44,1l-5-2.63a4.29,4.29,0,0,0-3.54,0l-5,2.63c-1,.51-1.62,0-1.43-1l.95-5.57a4.26,4.26,0,0,0-1.09-3.37l-4.05-3.94c-.79-.77-.54-1.53.55-1.69l5.59-.81a4.28,4.28,0,0,0,2.87-2.08Z"/><path class="cls-4" d="M132,101.47c.48-1,1.28-1,1.77,0l2.5,5.07a4.26,4.26,0,0,0,2.86,2.08l5.6.81c1.09.16,1.33.92.54,1.69l-4,3.94a4.3,4.3,0,0,0-1.1,3.37l1,5.57c.18,1.09-.46,1.55-1.43,1l-5-2.63a4.29,4.29,0,0,0-3.54,0l-5,2.63c-1,.51-1.62,0-1.43-1l.95-5.57a4.26,4.26,0,0,0-1.09-3.37l-4.05-3.94c-.79-.77-.54-1.53.55-1.69l5.59-.81a4.28,4.28,0,0,0,2.87-2.08Z"/><path class="cls-4" d="M172,101.47c.48-1,1.28-1,1.77,0l2.5,5.07a4.26,4.26,0,0,0,2.86,2.08l5.6.81c1.09.16,1.33.92.54,1.69l-4,3.94a4.3,4.3,0,0,0-1.1,3.37l1,5.57c.18,1.09-.46,1.55-1.43,1l-5-2.63a4.29,4.29,0,0,0-3.54,0l-5,2.63c-1,.51-1.62,0-1.43-1l.95-5.57a4.26,4.26,0,0,0-1.09-3.37l-4-3.94c-.79-.77-.54-1.53.55-1.69l5.59-.81a4.28,4.28,0,0,0,2.87-2.08Z"/><path class="cls-4" d="M212,101.47c.48-1,1.28-1,1.77,0l2.5,5.07a4.26,4.26,0,0,0,2.86,2.08l5.6.81c1.09.16,1.33.92.54,1.69l-4,3.94a4.3,4.3,0,0,0-1.1,3.37l1,5.57c.18,1.09-.46,1.55-1.43,1l-5-2.63a4.29,4.29,0,0,0-3.54,0l-5,2.63c-1,.51-1.62,0-1.43-1l.95-5.57a4.26,4.26,0,0,0-1.09-3.37l-4-3.94c-.79-.77-.54-1.53.55-1.69l5.59-.81a4.28,4.28,0,0,0,2.87-2.08Z"/><path class="cls-4" d="M32,131.47c.48-1,1.28-1,1.77,0l2.5,5.07a4.26,4.26,0,0,0,2.86,2.08l5.6.81c1.09.16,1.33.92.54,1.69l-4,3.94a4.3,4.3,0,0,0-1.1,3.37l1,5.57c.18,1.09-.46,1.55-1.44,1l-5-2.63a4.29,4.29,0,0,0-3.54,0l-5,2.63c-1,.51-1.62.05-1.43-1l1-5.57a4.26,4.26,0,0,0-1.09-3.37l-4.05-3.94c-.79-.77-.54-1.53.55-1.69l5.59-.81a4.28,4.28,0,0,0,2.87-2.08Z"/><path class="cls-4" d="M72,131.47c.48-1,1.28-1,1.77,0l2.5,5.07a4.26,4.26,0,0,0,2.86,2.08l5.6.81c1.09.16,1.33.92.54,1.69l-4,3.94a4.3,4.3,0,0,0-1.1,3.37l1,5.57c.18,1.09-.46,1.55-1.44,1l-5-2.63a4.29,4.29,0,0,0-3.54,0l-5,2.63c-1,.51-1.62.05-1.43-1l.95-5.57a4.26,4.26,0,0,0-1.09-3.37l-4.05-3.94c-.79-.77-.54-1.53.55-1.69l5.59-.81a4.28,4.28,0,0,0,2.87-2.08Z"/><path class="cls-4" d="M112,131.47c.48-1,1.28-1,1.77,0l2.5,5.07a4.26,4.26,0,0,0,2.86,2.08l5.6.81c1.09.16,1.33.92.54,1.69l-4,3.94a4.3,4.3,0,0,0-1.1,3.37l1,5.57c.18,1.09-.46,1.55-1.44,1l-5-2.63a4.29,4.29,0,0,0-3.54,0l-5,2.63c-1,.51-1.62.05-1.43-1l.95-5.57a4.26,4.26,0,0,0-1.09-3.37l-4.05-3.94c-.79-.77-.54-1.53.55-1.69l5.59-.81a4.28,4.28,0,0,0,2.87-2.08Z"/><path class="cls-4" d="M152,131.47c.48-1,1.28-1,1.77,0l2.5,5.07a4.26,4.26,0,0,0,2.86,2.08l5.6.81c1.09.16,1.33.92.54,1.69l-4,3.94a4.3,4.3,0,0,0-1.1,3.37l1,5.57c.18,1.09-.46,1.55-1.43,1l-5-2.63a4.29,4.29,0,0,0-3.54,0l-5,2.63c-1,.51-1.62.05-1.43-1l.95-5.57a4.26,4.26,0,0,0-1.09-3.37l-4-3.94c-.79-.77-.54-1.53.55-1.69l5.59-.81a4.28,4.28,0,0,0,2.87-2.08Z"/><path class="cls-4" d="M192,131.47c.48-1,1.28-1,1.77,0l2.5,5.07a4.26,4.26,0,0,0,2.86,2.08l5.6.81c1.09.16,1.33.92.54,1.69l-4,3.94a4.3,4.3,0,0,0-1.1,3.37l1,5.57c.18,1.09-.46,1.55-1.43,1l-5-2.63a4.29,4.29,0,0,0-3.54,0l-5,2.63c-1,.51-1.62.05-1.43-1l.95-5.57a4.26,4.26,0,0,0-1.09-3.37l-4-3.94c-.79-.77-.54-1.53.55-1.69l5.59-.81a4.28,4.28,0,0,0,2.87-2.08Z"/><path class="cls-4" d="M232,131.47c.48-1,1.28-1,1.77,0l2.5,5.07a4.26,4.26,0,0,0,2.86,2.08l5.6.81c1.09.16,1.33.92.54,1.69l-4,3.94a4.3,4.3,0,0,0-1.1,3.37l1,5.57c.18,1.09-.46,1.55-1.43,1l-5-2.63a4.29,4.29,0,0,0-3.54,0l-5,2.63c-1,.51-1.62.05-1.43-1l.95-5.57a4.26,4.26,0,0,0-1.09-3.37l-4-3.94c-.79-.77-.54-1.53.55-1.69l5.59-.81a4.28,4.28,0,0,0,2.87-2.08Z"/></g><rect class="cls-5" x="5.74" y="26.77" width="221.22" height="26.22"/><rect class="cls-6" x="12.85" y="52.99" width="207" height="12.05"/><rect class="cls-7" x="163.48" y="26.77" width="19.64" height="119.4"/><rect class="cls-8" x="163.72" y="12.56" width="19.09" height="19.09" transform="translate(-0.11 0.9) rotate(-0.3)"/><path class="cls-7" d="M163.67,12.61,135.87.92c-2.9-1.23-5.26.35-5.25,3.5l.07,12.18c0,3.15,0,8.31.06,11.45l.06,12.19c0,3.14,2.39,4.7,5.28,3.45l27.68-12Z"/><path class="cls-8" d="M164,23.08S142,31.49,142,21.94,164,23.08,164,23.08Z"/><path class="cls-7" d="M182.76,12.51,210.28.43c2.9-1.25,5.27.3,5.29,3.45l.06,12.18c0,3.16.05,8.31.06,11.46l.06,12.18c0,3.15-2.34,4.73-5.25,3.51L182.7,31.5Z"/><path class="cls-8" d="M182.63,23.1s22,8.19,22-1.36S182.63,23.1,182.63,23.1Z"/></g></g></svg>