<svg xmlns="http://www.w3.org/2000/svg" viewBox="0 0 131.72 173.23"><defs><style>.cls-1{fill:#eaf995;}.cls-2{fill:#b8d338;}.cls-3{fill:#afba1a;}.cls-4{opacity:0.15;}.cls-5{fill:#ed1b24;}</style></defs><title>Ресурс 2</title><g id="Слой_2" data-name="Слой 2"><g id="OBJECTS"><rect class="cls-1" x="4.32" y="61.69" width="123.08" height="111.54"/><rect class="cls-2" x="4.32" y="163.52" width="123.08" height="9.71"/><rect class="cls-2" x="4.32" y="143.15" width="123.08" height="9.71"/><rect class="cls-2" x="4.32" y="122.79" width="123.08" height="9.71"/><rect class="cls-2" x="4.32" y="102.42" width="123.08" height="9.71"/><rect class="cls-2" x="4.32" y="82.06" width="123.08" height="9.71"/><rect class="cls-2" x="4.32" y="61.69" width="123.08" height="9.71"/><rect class="cls-3" y="53.83" width="131.72" height="33.08"/><rect class="cls-4" x="4.32" y="86.91" width="123.08" height="11.45"/><rect class="cls-5" x="56.04" y="53.83" width="19.64" height="119.4"/><rect class="cls-5" x="4.32" y="107.64" width="123.59" height="19.64"/><path class="cls-5" d="M111.65,21.65A14.64,14.64,0,0,0,108.89,20c-.58-4.36-3.15-8.16-8.56-10.1a13.76,13.76,0,0,0-5.07-.84c-1.75-5.37-5.91-9.35-13-9C73.08.39,68.4,8.53,66.11,18.55,63.83,8.53,59.15.39,50,0,42.88-.28,38.72,3.7,37,9.07a13.8,13.8,0,0,0-5.07.84c-5.4,1.94-8,5.74-8.55,10.1a14.64,14.64,0,0,0-2.76,1.64c-9.5,7.26-4.94,18.52,3.22,24.8A45.77,45.77,0,0,0,64.4,54q.67,0,1.35,0s0,0,.07,0L66,54h.33l.13,0s0,0,.06,0c.46,0,.91,0,1.36,0a45.77,45.77,0,0,0,40.6-7.56C116.59,40.17,121.15,28.91,111.65,21.65Zm-15.6-9a10.73,10.73,0,0,1,8.63,5.55,7.43,7.43,0,0,1,.35.76,18,18,0,0,0-9.29,1.64A24.79,24.79,0,0,0,96.05,12.6Zm-3.32.48A28.64,28.64,0,0,1,92.32,21c-.09.48-.21,1-.32,1.44C84.43,27,77.06,34.8,71.51,41.63c4.25-11.1,10.37-22.78,19.89-28A7.72,7.72,0,0,1,92.73,13.08ZM75.38,6.85c3.49-4.27,10-4.14,14-.83A8.56,8.56,0,0,1,91.89,9.6C81.14,12.72,73,28.77,68.08,41.2c0-3.53,0-7.39-.33-11.28C68.43,21.27,70.48,12.85,75.38,6.85ZM42.85,6c4-3.31,10.51-3.44,14,.83,4.9,6,6.95,14.42,7.63,23.07-.3,3.89-.38,7.75-.33,11.28C59.26,28.77,51.08,12.72,40.33,9.6A8.67,8.67,0,0,1,42.85,6ZM39.5,13.08a7.72,7.72,0,0,1,1.33.57c9.52,5.2,15.64,16.88,19.89,28C55.17,34.8,47.8,27,40.23,22.46c-.11-.48-.23-1-.32-1.44A28.64,28.64,0,0,1,39.5,13.08ZM27.55,18.15a10.73,10.73,0,0,1,8.63-5.55,24.51,24.51,0,0,0,.31,8,18,18,0,0,0-9.29-1.64A5.77,5.77,0,0,1,27.55,18.15ZM26.26,44.24c-3.64-3.08-8.35-8.13-7.33-13.42a10.89,10.89,0,0,1,4.38-6.74,23.63,23.63,0,0,0,4.15,10.44A45.46,45.46,0,0,0,53.72,52.6C43.92,53.24,33.85,50.66,26.26,44.24Zm4.21-11.09c-1.79-2.85-3.79-6.81-3.9-10.55a8.49,8.49,0,0,1,3.66-.08,28,28,0,0,1,7.51,2.69,45.83,45.83,0,0,0,19.94,25C46.81,48.41,36.42,42.61,30.47,33.15Zm11.38-5.47C49.72,33.06,56.55,41.41,62,48.8,53.1,44.39,45.55,36.89,41.85,27.68Zm48.53,0c-3.7,9.21-11.25,16.71-20.1,21.12C75.68,41.41,82.51,33.06,90.38,27.68Zm4.11-2.47A28,28,0,0,1,102,22.52a8.49,8.49,0,0,1,3.66.08c-.11,3.74-2.11,7.7-3.9,10.55-6,9.46-16.34,15.26-27.21,17A45.83,45.83,0,0,0,94.49,25.21Zm11.48,19c-7.6,6.42-17.66,9-27.46,8.36a45.49,45.49,0,0,0,26.26-18.08,23.75,23.75,0,0,0,4.15-10.44,10.84,10.84,0,0,1,4.37,6.74C114.32,36.11,109.61,41.16,106,44.24Z"/></g></g></svg>