<svg xmlns="http://www.w3.org/2000/svg" xmlns:xlink="http://www.w3.org/1999/xlink" viewBox="0 0 147.66 144.17"><defs><style>.cls-1{fill:none;}.cls-2{fill:#ffbc03;}.cls-3{clip-path:url(#clip-path);}.cls-4{fill:#f9ca55;}.cls-5{fill:#ffa506;}.cls-6{opacity:0.1;}.cls-7{fill:#46c178;}.cls-8{fill:#64dd95;}</style><clipPath id="clip-path"><rect class="cls-1" x="10.55" y="48.1" width="127.64" height="81.13"/></clipPath></defs><title>Ресурс 10</title><g id="Слой_2" data-name="Слой 2"><g id="OBJECTS"><rect class="cls-2" x="10.55" y="48.1" width="127.64" height="81.13"/><g class="cls-3"><polygon class="cls-4" points="117.91 63.23 138.13 50 117.91 36.77 140.51 21.98 145.28 25.11 127.44 36.77 147.66 50 127.44 63.23 147.66 76.45 127.44 89.68 147.66 102.91 127.44 116.14 147.66 129.37 125.06 144.17 120.3 141.05 138.13 129.37 117.92 116.14 138.13 102.91 117.92 89.68 138.13 76.45 117.91 63.23"/><polygon class="cls-4" points="101.07 63.23 121.28 50 101.07 36.77 123.67 21.98 128.43 25.11 110.6 36.77 130.81 50 110.6 63.23 130.81 76.45 110.6 89.68 130.81 102.91 110.6 116.14 130.81 129.37 108.22 144.17 103.45 141.05 121.28 129.37 101.07 116.14 121.28 102.91 101.07 89.68 121.28 76.45 101.07 63.23"/><polygon class="cls-4" points="84.22 63.23 104.44 50 84.22 36.77 106.82 21.98 111.58 25.11 93.75 36.77 113.97 50 93.75 63.23 113.97 76.45 93.75 89.68 113.97 102.91 93.75 116.14 113.97 129.37 91.37 144.17 86.61 141.05 104.44 129.37 84.23 116.14 104.44 102.91 84.23 89.68 104.44 76.45 84.22 63.23"/><polygon class="cls-4" points="67.38 63.23 87.59 50 67.38 36.77 89.98 21.98 94.74 25.11 76.91 36.77 97.12 50 76.91 63.23 97.12 76.45 76.91 89.68 97.12 102.91 76.91 116.14 97.12 129.37 74.53 144.17 69.76 141.05 87.59 129.37 67.38 116.14 87.59 102.91 67.38 89.68 87.59 76.45 67.38 63.23"/><polygon class="cls-4" points="50.53 63.23 70.75 50 50.53 36.77 73.13 21.98 77.89 25.11 60.06 36.77 80.28 50 60.06 63.23 80.28 76.45 60.06 89.68 80.28 102.91 60.06 116.14 80.28 129.37 57.68 144.17 52.92 141.05 70.75 129.37 50.54 116.14 70.75 102.91 50.54 89.68 70.75 76.45 50.53 63.23"/><polygon class="cls-4" points="33.69 63.23 53.91 50 33.69 36.77 56.29 21.98 61.05 25.11 43.22 36.77 63.43 50 43.22 63.23 63.43 76.45 43.22 89.68 63.43 102.91 43.22 116.14 63.43 129.37 40.84 144.17 36.07 141.05 53.91 129.37 33.69 116.14 53.91 102.91 33.69 89.68 53.9 76.45 33.69 63.23"/><polygon class="cls-4" points="16.84 63.23 37.06 50 16.84 36.77 39.44 21.98 44.21 25.11 26.38 36.77 46.59 50 26.38 63.23 46.59 76.45 26.37 89.68 46.59 102.91 26.37 116.14 46.59 129.37 23.99 144.17 19.23 141.05 37.06 129.37 16.85 116.14 37.06 102.91 16.85 89.68 37.06 76.45 16.84 63.23"/><polygon class="cls-4" points="0 63.23 20.22 50 0 36.77 22.6 21.98 27.36 25.11 9.53 36.77 29.74 50 9.53 63.23 29.75 76.45 9.53 89.68 29.74 102.91 9.53 116.14 29.74 129.37 7.15 144.17 2.38 141.05 20.22 129.37 0 116.14 20.22 102.91 0 89.68 20.21 76.45 0 63.23"/></g><rect class="cls-5" x="5.77" y="39.96" width="137.21" height="51.14"/><rect class="cls-6" x="10.55" y="91.11" width="127.64" height="8.03"/><rect class="cls-7" x="64.55" y="28.05" width="19.64" height="101.17"/><polygon class="cls-8" points="84.19 28.05 112.66 0 112.66 39.96 84.19 39.96 84.19 28.05"/><polygon class="cls-8" points="64.49 28.05 36.02 0 36.02 39.96 64.49 39.96 64.49 28.05"/></g></g></svg>